<?xml version='1.0' encoding='utf-8'?>
<mlt title="Anonymous Submission" version="6.4.1" root="/home/psyriccio/prj/blenderbulber/demo_cam_anim" producer="main bin" LC_NUMERIC="ru_RU.UTF-8">
 <profile width="1920" frame_rate_den="1" height="1080" display_aspect_num="16" display_aspect_den="9" frame_rate_num="30" colorspace="709" sample_aspect_den="1" description="HD 1080p 30 fps" progressive="1" sample_aspect_num="1"/>
 <producer id="2" title="Anonymous Submission" out="1616" in="0">
  <property name="length">00:00:53:27</property>
  <property name="eof">pause</property>
  <property name="resource">/home/psyriccio/.cache/kdenlive/proxy/451113117085227ca762e3540c2ea919.mpg</property>
  <property name="meta.media.nb_streams">1</property>
  <property name="meta.media.0.stream.type">video</property>
  <property name="meta.media.0.stream.frame_rate">30</property>
  <property name="meta.media.0.stream.sample_aspect_ratio">0</property>
  <property name="meta.media.0.codec.width">640</property>
  <property name="meta.media.0.codec.height">360</property>
  <property name="meta.media.0.codec.rotate">0</property>
  <property name="meta.media.0.codec.frame_rate">30</property>
  <property name="meta.media.0.codec.pix_fmt">yuv420p</property>
  <property name="meta.media.0.codec.sample_aspect_ratio">1</property>
  <property name="meta.media.0.codec.colorspace">601</property>
  <property name="meta.media.0.codec.name">mpeg2video</property>
  <property name="meta.media.0.codec.long_name">MPEG-2 video</property>
  <property name="meta.media.0.codec.bit_rate">0</property>
  <property name="seekable">1</property>
  <property name="meta.media.sample_aspect_num">1</property>
  <property name="meta.media.sample_aspect_den">1</property>
  <property name="aspect_ratio">1</property>
  <property name="audio_index">-1</property>
  <property name="video_index">0</property>
  <property name="mute_on_pause">1</property>
  <property name="mlt_service">avformat</property>
  <property name="kdenlive:folderid">-1</property>
  <property name="meta.media.frame_rate_num">30</property>
  <property name="meta.media.frame_rate_den">1</property>
  <property name="meta.media.colorspace">601</property>
  <property name="meta.media.color_trc">2</property>
  <property name="meta.media.width">640</property>
  <property name="meta.media.height">360</property>
  <property name="meta.media.top_field_first">0</property>
  <property name="meta.media.progressive">1</property>
  <property name="kdenlive:file_size">13368248</property>
  <property name="kdenlive:file_hash">451113117085227ca762e3540c2ea919</property>
  <property name="kdenlive:proxy">/home/psyriccio/.cache/kdenlive/proxy/451113117085227ca762e3540c2ea919.mpg</property>
  <property name="proxy_out">1616</property>
  <property name="kdenlive:originalurl">clips/vokoscreen-2017-01-09_22-39-58.avi</property>
  <property name="global_feed">1</property>
  <property name="kdenlive:meta.media.nb_streams">1</property>
  <property name="kdenlive:meta.media.0.stream.type">video</property>
  <property name="kdenlive:meta.media.0.stream.frame_rate">30</property>
  <property name="kdenlive:meta.media.0.stream.sample_aspect_ratio">0</property>
  <property name="kdenlive:meta.media.0.codec.width">1366</property>
  <property name="kdenlive:meta.media.0.codec.height">768</property>
  <property name="kdenlive:meta.media.0.codec.rotate">0</property>
  <property name="kdenlive:meta.media.0.codec.frame_rate">65491</property>
  <property name="kdenlive:meta.media.0.codec.pix_fmt">yuv420p</property>
  <property name="kdenlive:meta.media.0.codec.sample_aspect_ratio">1</property>
  <property name="kdenlive:meta.media.0.codec.colorspace">709</property>
  <property name="kdenlive:meta.media.0.codec.name">mpeg4</property>
  <property name="kdenlive:meta.media.0.codec.long_name">MPEG-4 part 2</property>
  <property name="kdenlive:meta.media.0.codec.bit_rate">1957531</property>
  <property name="kdenlive:meta.media.sample_aspect_num">1</property>
  <property name="kdenlive:meta.media.sample_aspect_den">1</property>
  <property name="kdenlive:meta.media.frame_rate_num">30</property>
  <property name="kdenlive:meta.media.frame_rate_den">1</property>
  <property name="kdenlive:meta.media.colorspace">709</property>
  <property name="kdenlive:meta.media.color_trc">2</property>
  <property name="kdenlive:meta.media.width">1366</property>
  <property name="kdenlive:meta.media.height">768</property>
  <property name="kdenlive:meta.media.top_field_first">0</property>
  <property name="kdenlive:meta.media.progressive">1</property>
 </producer>
 <producer id="1" title="Anonymous Submission" out="4887" in="0">
  <property name="length">00:02:42:28</property>
  <property name="eof">pause</property>
  <property name="resource">/home/psyriccio/.cache/kdenlive/proxy/ff6b55cf82bce7aa5f889932a84375d2.mpg</property>
  <property name="meta.media.nb_streams">1</property>
  <property name="meta.media.0.stream.type">video</property>
  <property name="meta.media.0.stream.frame_rate">30</property>
  <property name="meta.media.0.stream.sample_aspect_ratio">0</property>
  <property name="meta.media.0.codec.width">640</property>
  <property name="meta.media.0.codec.height">360</property>
  <property name="meta.media.0.codec.rotate">0</property>
  <property name="meta.media.0.codec.frame_rate">30</property>
  <property name="meta.media.0.codec.pix_fmt">yuv420p</property>
  <property name="meta.media.0.codec.sample_aspect_ratio">1</property>
  <property name="meta.media.0.codec.colorspace">601</property>
  <property name="meta.media.0.codec.name">mpeg2video</property>
  <property name="meta.media.0.codec.long_name">MPEG-2 video</property>
  <property name="meta.media.0.codec.bit_rate">0</property>
  <property name="seekable">1</property>
  <property name="meta.media.sample_aspect_num">1</property>
  <property name="meta.media.sample_aspect_den">1</property>
  <property name="aspect_ratio">1</property>
  <property name="audio_index">-1</property>
  <property name="video_index">0</property>
  <property name="mute_on_pause">1</property>
  <property name="mlt_service">avformat</property>
  <property name="kdenlive:folderid">-1</property>
  <property name="meta.media.frame_rate_num">30</property>
  <property name="meta.media.frame_rate_den">1</property>
  <property name="meta.media.colorspace">601</property>
  <property name="meta.media.color_trc">2</property>
  <property name="meta.media.width">640</property>
  <property name="meta.media.height">360</property>
  <property name="meta.media.top_field_first">0</property>
  <property name="meta.media.progressive">1</property>
  <property name="kdenlive:file_size">18983802</property>
  <property name="kdenlive:file_hash">ff6b55cf82bce7aa5f889932a84375d2</property>
  <property name="kdenlive:proxy">/home/psyriccio/.cache/kdenlive/proxy/ff6b55cf82bce7aa5f889932a84375d2.mpg</property>
  <property name="proxy_out">4887</property>
  <property name="kdenlive:originalurl">clips/vokoscreen-2017-01-09_22-28-36.avi</property>
  <property name="global_feed">1</property>
  <property name="kdenlive:meta.media.nb_streams">1</property>
  <property name="kdenlive:meta.media.0.stream.type">video</property>
  <property name="kdenlive:meta.media.0.stream.frame_rate">30</property>
  <property name="kdenlive:meta.media.0.stream.sample_aspect_ratio">0</property>
  <property name="kdenlive:meta.media.0.codec.width">1366</property>
  <property name="kdenlive:meta.media.0.codec.height">768</property>
  <property name="kdenlive:meta.media.0.codec.rotate">0</property>
  <property name="kdenlive:meta.media.0.codec.frame_rate">65491</property>
  <property name="kdenlive:meta.media.0.codec.pix_fmt">yuv420p</property>
  <property name="kdenlive:meta.media.0.codec.sample_aspect_ratio">1</property>
  <property name="kdenlive:meta.media.0.codec.colorspace">709</property>
  <property name="kdenlive:meta.media.0.codec.name">mpeg4</property>
  <property name="kdenlive:meta.media.0.codec.long_name">MPEG-4 part 2</property>
  <property name="kdenlive:meta.media.0.codec.bit_rate">919146</property>
  <property name="kdenlive:meta.media.sample_aspect_num">1</property>
  <property name="kdenlive:meta.media.sample_aspect_den">1</property>
  <property name="kdenlive:meta.media.frame_rate_num">30</property>
  <property name="kdenlive:meta.media.frame_rate_den">1</property>
  <property name="kdenlive:meta.media.colorspace">709</property>
  <property name="kdenlive:meta.media.color_trc">2</property>
  <property name="kdenlive:meta.media.width">1366</property>
  <property name="kdenlive:meta.media.height">768</property>
  <property name="kdenlive:meta.media.top_field_first">0</property>
  <property name="kdenlive:meta.media.progressive">1</property>
 </producer>
 <producer id="3" title="Anonymous Submission" out="4534" in="0">
  <property name="length">00:02:31:05</property>
  <property name="eof">pause</property>
  <property name="resource">/home/psyriccio/.cache/kdenlive/proxy/73b42505af41eef8c98aa2fa48992ae7.mpg</property>
  <property name="meta.media.nb_streams">1</property>
  <property name="meta.media.0.stream.type">video</property>
  <property name="meta.media.0.stream.frame_rate">30</property>
  <property name="meta.media.0.stream.sample_aspect_ratio">0</property>
  <property name="meta.media.0.codec.width">640</property>
  <property name="meta.media.0.codec.height">360</property>
  <property name="meta.media.0.codec.rotate">0</property>
  <property name="meta.media.0.codec.frame_rate">30</property>
  <property name="meta.media.0.codec.pix_fmt">yuv420p</property>
  <property name="meta.media.0.codec.sample_aspect_ratio">1</property>
  <property name="meta.media.0.codec.colorspace">601</property>
  <property name="meta.media.0.codec.name">mpeg2video</property>
  <property name="meta.media.0.codec.long_name">MPEG-2 video</property>
  <property name="meta.media.0.codec.bit_rate">0</property>
  <property name="seekable">1</property>
  <property name="meta.media.sample_aspect_num">1</property>
  <property name="meta.media.sample_aspect_den">1</property>
  <property name="aspect_ratio">1</property>
  <property name="audio_index">-1</property>
  <property name="video_index">0</property>
  <property name="mute_on_pause">1</property>
  <property name="mlt_service">avformat</property>
  <property name="kdenlive:folderid">-1</property>
  <property name="meta.media.frame_rate_num">30</property>
  <property name="meta.media.frame_rate_den">1</property>
  <property name="meta.media.colorspace">601</property>
  <property name="meta.media.color_trc">2</property>
  <property name="meta.media.width">640</property>
  <property name="meta.media.height">360</property>
  <property name="meta.media.top_field_first">0</property>
  <property name="meta.media.progressive">1</property>
  <property name="kdenlive:file_size">21422260</property>
  <property name="kdenlive:file_hash">73b42505af41eef8c98aa2fa48992ae7</property>
  <property name="kdenlive:proxy">/home/psyriccio/.cache/kdenlive/proxy/73b42505af41eef8c98aa2fa48992ae7.mpg</property>
  <property name="proxy_out">4534</property>
  <property name="kdenlive:originalurl">clips/vokoscreen-2017-01-09_22-41-19.avi</property>
  <property name="global_feed">1</property>
  <property name="kdenlive:meta.media.nb_streams">1</property>
  <property name="kdenlive:meta.media.0.stream.type">video</property>
  <property name="kdenlive:meta.media.0.stream.frame_rate">30</property>
  <property name="kdenlive:meta.media.0.stream.sample_aspect_ratio">0</property>
  <property name="kdenlive:meta.media.0.codec.width">1366</property>
  <property name="kdenlive:meta.media.0.codec.height">768</property>
  <property name="kdenlive:meta.media.0.codec.rotate">0</property>
  <property name="kdenlive:meta.media.0.codec.frame_rate">65491</property>
  <property name="kdenlive:meta.media.0.codec.pix_fmt">yuv420p</property>
  <property name="kdenlive:meta.media.0.codec.sample_aspect_ratio">1</property>
  <property name="kdenlive:meta.media.0.codec.colorspace">709</property>
  <property name="kdenlive:meta.media.0.codec.name">mpeg4</property>
  <property name="kdenlive:meta.media.0.codec.long_name">MPEG-4 part 2</property>
  <property name="kdenlive:meta.media.0.codec.bit_rate">1120256</property>
  <property name="kdenlive:meta.media.sample_aspect_num">1</property>
  <property name="kdenlive:meta.media.sample_aspect_den">1</property>
  <property name="kdenlive:meta.media.frame_rate_num">30</property>
  <property name="kdenlive:meta.media.frame_rate_den">1</property>
  <property name="kdenlive:meta.media.colorspace">709</property>
  <property name="kdenlive:meta.media.color_trc">2</property>
  <property name="kdenlive:meta.media.width">1366</property>
  <property name="kdenlive:meta.media.height">768</property>
  <property name="kdenlive:meta.media.top_field_first">0</property>
  <property name="kdenlive:meta.media.progressive">1</property>
 </producer>
 <producer id="4" title="Anonymous Submission" out="1756" in="0">
  <property name="length">00:00:58:17</property>
  <property name="eof">pause</property>
  <property name="resource">/home/psyriccio/.cache/kdenlive/proxy/ea290ae975b4b1b17ba5710799caf040.mpg</property>
  <property name="meta.media.nb_streams">1</property>
  <property name="meta.media.0.stream.type">video</property>
  <property name="meta.media.0.stream.frame_rate">30</property>
  <property name="meta.media.0.stream.sample_aspect_ratio">0</property>
  <property name="meta.media.0.codec.width">640</property>
  <property name="meta.media.0.codec.height">360</property>
  <property name="meta.media.0.codec.rotate">0</property>
  <property name="meta.media.0.codec.frame_rate">30</property>
  <property name="meta.media.0.codec.pix_fmt">yuv420p</property>
  <property name="meta.media.0.codec.sample_aspect_ratio">1</property>
  <property name="meta.media.0.codec.colorspace">601</property>
  <property name="meta.media.0.codec.name">mpeg2video</property>
  <property name="meta.media.0.codec.long_name">MPEG-2 video</property>
  <property name="meta.media.0.codec.bit_rate">0</property>
  <property name="seekable">1</property>
  <property name="meta.media.sample_aspect_num">1</property>
  <property name="meta.media.sample_aspect_den">1</property>
  <property name="aspect_ratio">1</property>
  <property name="audio_index">-1</property>
  <property name="video_index">0</property>
  <property name="mute_on_pause">1</property>
  <property name="mlt_service">avformat</property>
  <property name="kdenlive:folderid">-1</property>
  <property name="meta.media.frame_rate_num">30</property>
  <property name="meta.media.frame_rate_den">1</property>
  <property name="meta.media.colorspace">601</property>
  <property name="meta.media.color_trc">2</property>
  <property name="meta.media.width">640</property>
  <property name="meta.media.height">360</property>
  <property name="meta.media.top_field_first">0</property>
  <property name="meta.media.progressive">1</property>
  <property name="kdenlive:file_size">14026482</property>
  <property name="kdenlive:file_hash">ea290ae975b4b1b17ba5710799caf040</property>
  <property name="kdenlive:proxy">/home/psyriccio/.cache/kdenlive/proxy/ea290ae975b4b1b17ba5710799caf040.mpg</property>
  <property name="proxy_out">1756</property>
  <property name="kdenlive:originalurl">clips/vokoscreen-2017-01-09_22-54-41.avi</property>
  <property name="global_feed">1</property>
  <property name="kdenlive:meta.media.nb_streams">1</property>
  <property name="kdenlive:meta.media.0.stream.type">video</property>
  <property name="kdenlive:meta.media.0.stream.frame_rate">30</property>
  <property name="kdenlive:meta.media.0.stream.sample_aspect_ratio">0</property>
  <property name="kdenlive:meta.media.0.codec.width">1366</property>
  <property name="kdenlive:meta.media.0.codec.height">768</property>
  <property name="kdenlive:meta.media.0.codec.rotate">0</property>
  <property name="kdenlive:meta.media.0.codec.frame_rate">65491</property>
  <property name="kdenlive:meta.media.0.codec.pix_fmt">yuv420p</property>
  <property name="kdenlive:meta.media.0.codec.sample_aspect_ratio">1</property>
  <property name="kdenlive:meta.media.0.codec.colorspace">709</property>
  <property name="kdenlive:meta.media.0.codec.name">mpeg4</property>
  <property name="kdenlive:meta.media.0.codec.long_name">MPEG-4 part 2</property>
  <property name="kdenlive:meta.media.0.codec.bit_rate">1890963</property>
  <property name="kdenlive:meta.media.sample_aspect_num">1</property>
  <property name="kdenlive:meta.media.sample_aspect_den">1</property>
  <property name="kdenlive:meta.media.frame_rate_num">30</property>
  <property name="kdenlive:meta.media.frame_rate_den">1</property>
  <property name="kdenlive:meta.media.colorspace">709</property>
  <property name="kdenlive:meta.media.color_trc">2</property>
  <property name="kdenlive:meta.media.width">1366</property>
  <property name="kdenlive:meta.media.height">768</property>
  <property name="kdenlive:meta.media.top_field_first">0</property>
  <property name="kdenlive:meta.media.progressive">1</property>
 </producer>
 <producer id="5" title="Anonymous Submission" out="1859" in="0">
  <property name="length">00:01:02:00</property>
  <property name="eof">pause</property>
  <property name="resource">/home/psyriccio/.cache/kdenlive/proxy/5abe12376e3a359bc0f7529183c6f0cc.mpg</property>
  <property name="meta.media.nb_streams">1</property>
  <property name="meta.media.0.stream.type">video</property>
  <property name="meta.media.0.stream.frame_rate">30</property>
  <property name="meta.media.0.stream.sample_aspect_ratio">0</property>
  <property name="meta.media.0.codec.width">640</property>
  <property name="meta.media.0.codec.height">360</property>
  <property name="meta.media.0.codec.rotate">0</property>
  <property name="meta.media.0.codec.frame_rate">30</property>
  <property name="meta.media.0.codec.pix_fmt">yuv420p</property>
  <property name="meta.media.0.codec.sample_aspect_ratio">1</property>
  <property name="meta.media.0.codec.colorspace">601</property>
  <property name="meta.media.0.codec.name">mpeg2video</property>
  <property name="meta.media.0.codec.long_name">MPEG-2 video</property>
  <property name="meta.media.0.codec.bit_rate">0</property>
  <property name="seekable">1</property>
  <property name="meta.media.sample_aspect_num">1</property>
  <property name="meta.media.sample_aspect_den">1</property>
  <property name="aspect_ratio">1</property>
  <property name="audio_index">-1</property>
  <property name="video_index">0</property>
  <property name="mute_on_pause">1</property>
  <property name="mlt_service">avformat</property>
  <property name="kdenlive:folderid">-1</property>
  <property name="meta.media.frame_rate_num">30</property>
  <property name="meta.media.frame_rate_den">1</property>
  <property name="meta.media.colorspace">601</property>
  <property name="meta.media.color_trc">2</property>
  <property name="meta.media.width">640</property>
  <property name="meta.media.height">360</property>
  <property name="meta.media.top_field_first">0</property>
  <property name="meta.media.progressive">1</property>
  <property name="kdenlive:file_size">8350380</property>
  <property name="kdenlive:file_hash">5abe12376e3a359bc0f7529183c6f0cc</property>
  <property name="kdenlive:proxy">/home/psyriccio/.cache/kdenlive/proxy/5abe12376e3a359bc0f7529183c6f0cc.mpg</property>
  <property name="proxy_out">1859</property>
  <property name="kdenlive:originalurl">clips/vokoscreen-2017-01-09_23-08-33.avi</property>
  <property name="global_feed">1</property>
  <property name="kdenlive:meta.media.nb_streams">1</property>
  <property name="kdenlive:meta.media.0.stream.type">video</property>
  <property name="kdenlive:meta.media.0.stream.frame_rate">30</property>
  <property name="kdenlive:meta.media.0.stream.sample_aspect_ratio">0</property>
  <property name="kdenlive:meta.media.0.codec.width">1366</property>
  <property name="kdenlive:meta.media.0.codec.height">768</property>
  <property name="kdenlive:meta.media.0.codec.rotate">0</property>
  <property name="kdenlive:meta.media.0.codec.frame_rate">65491</property>
  <property name="kdenlive:meta.media.0.codec.pix_fmt">yuv420p</property>
  <property name="kdenlive:meta.media.0.codec.sample_aspect_ratio">1</property>
  <property name="kdenlive:meta.media.0.codec.colorspace">709</property>
  <property name="kdenlive:meta.media.0.codec.name">mpeg4</property>
  <property name="kdenlive:meta.media.0.codec.long_name">MPEG-4 part 2</property>
  <property name="kdenlive:meta.media.0.codec.bit_rate">1053130</property>
  <property name="kdenlive:meta.media.sample_aspect_num">1</property>
  <property name="kdenlive:meta.media.sample_aspect_den">1</property>
  <property name="kdenlive:meta.media.frame_rate_num">30</property>
  <property name="kdenlive:meta.media.frame_rate_den">1</property>
  <property name="kdenlive:meta.media.colorspace">709</property>
  <property name="kdenlive:meta.media.color_trc">2</property>
  <property name="kdenlive:meta.media.width">1366</property>
  <property name="kdenlive:meta.media.height">768</property>
  <property name="kdenlive:meta.media.top_field_first">0</property>
  <property name="kdenlive:meta.media.progressive">1</property>
 </producer>
 <producer id="6" title="Anonymous Submission" out="1799" in="0">
  <property name="length">00:01:00:00</property>
  <property name="eof">pause</property>
  <property name="resource">/home/psyriccio/.cache/kdenlive/proxy/4919bc473686da9ab709059c3df1024f.mpg</property>
  <property name="meta.media.nb_streams">1</property>
  <property name="meta.media.0.stream.type">video</property>
  <property name="meta.media.0.stream.frame_rate">30</property>
  <property name="meta.media.0.stream.sample_aspect_ratio">0</property>
  <property name="meta.media.0.codec.width">640</property>
  <property name="meta.media.0.codec.height">360</property>
  <property name="meta.media.0.codec.rotate">0</property>
  <property name="meta.media.0.codec.frame_rate">30</property>
  <property name="meta.media.0.codec.pix_fmt">yuv420p</property>
  <property name="meta.media.0.codec.sample_aspect_ratio">1</property>
  <property name="meta.media.0.codec.colorspace">601</property>
  <property name="meta.media.0.codec.name">mpeg2video</property>
  <property name="meta.media.0.codec.long_name">MPEG-2 video</property>
  <property name="meta.media.0.codec.bit_rate">0</property>
  <property name="seekable">1</property>
  <property name="meta.media.sample_aspect_num">1</property>
  <property name="meta.media.sample_aspect_den">1</property>
  <property name="aspect_ratio">1</property>
  <property name="audio_index">-1</property>
  <property name="video_index">0</property>
  <property name="mute_on_pause">1</property>
  <property name="mlt_service">avformat</property>
  <property name="kdenlive:folderid">-1</property>
  <property name="meta.media.frame_rate_num">30</property>
  <property name="meta.media.frame_rate_den">1</property>
  <property name="meta.media.colorspace">601</property>
  <property name="meta.media.color_trc">2</property>
  <property name="meta.media.width">640</property>
  <property name="meta.media.height">360</property>
  <property name="meta.media.top_field_first">0</property>
  <property name="meta.media.progressive">1</property>
  <property name="kdenlive:file_size">3390278</property>
  <property name="kdenlive:file_hash">4919bc473686da9ab709059c3df1024f</property>
  <property name="kdenlive:proxy">/home/psyriccio/.cache/kdenlive/proxy/4919bc473686da9ab709059c3df1024f.mpg</property>
  <property name="proxy_out">1799</property>
  <property name="kdenlive:originalurl">clips/vokoscreen-2017-01-09_23-13-30.avi</property>
  <property name="global_feed">1</property>
  <property name="kdenlive:meta.media.nb_streams">1</property>
  <property name="kdenlive:meta.media.0.stream.type">video</property>
  <property name="kdenlive:meta.media.0.stream.frame_rate">30</property>
  <property name="kdenlive:meta.media.0.stream.sample_aspect_ratio">0</property>
  <property name="kdenlive:meta.media.0.codec.width">1366</property>
  <property name="kdenlive:meta.media.0.codec.height">768</property>
  <property name="kdenlive:meta.media.0.codec.rotate">0</property>
  <property name="kdenlive:meta.media.0.codec.frame_rate">65491</property>
  <property name="kdenlive:meta.media.0.codec.pix_fmt">yuv420p</property>
  <property name="kdenlive:meta.media.0.codec.sample_aspect_ratio">1</property>
  <property name="kdenlive:meta.media.0.codec.colorspace">709</property>
  <property name="kdenlive:meta.media.0.codec.name">mpeg4</property>
  <property name="kdenlive:meta.media.0.codec.long_name">MPEG-4 part 2</property>
  <property name="kdenlive:meta.media.0.codec.bit_rate">426682</property>
  <property name="kdenlive:meta.media.sample_aspect_num">1</property>
  <property name="kdenlive:meta.media.sample_aspect_den">1</property>
  <property name="kdenlive:meta.media.frame_rate_num">30</property>
  <property name="kdenlive:meta.media.frame_rate_den">1</property>
  <property name="kdenlive:meta.media.colorspace">709</property>
  <property name="kdenlive:meta.media.color_trc">2</property>
  <property name="kdenlive:meta.media.width">1366</property>
  <property name="kdenlive:meta.media.height">768</property>
  <property name="kdenlive:meta.media.top_field_first">0</property>
  <property name="kdenlive:meta.media.progressive">1</property>
 </producer>
 <producer id="7" out="275" in="0">
  <property name="length">276</property>
  <property name="eof">pause</property>
  <property name="resource"/>
  <property name="progressive">1</property>
  <property name="aspect_ratio">1</property>
  <property name="seekable">1</property>
  <property name="mlt_service">kdenlivetitle</property>
  <property name="kdenlive:clipname">Title clip</property>
  <property name="kdenlive:folderid">-1</property>
  <property name="xmldata">&lt;kdenlivetitle width="1920" duration="150" out="150" height="1080" LC_NUMERIC="ru_RU.UTF-8">
 &lt;item z-index="4" type="QGraphicsTextItem">
  &lt;position x="467" y="885">
   &lt;transform>1,0,0,0,1,0,0,0,1&lt;/transform>
  &lt;/position>
  &lt;content font-italic="0" letter-spacing="0" font-weight="75" box-height="60" font-outline-color="0,0,0,255" shadow="0;#64000000;3;3;3" font="Input Mono" font-underline="0" font-outline="0.2" font-pixel-size="50" line-spacing="0" box-width="986.188" font-color="85,87,83,255" alignment="1">Camera animation migration demo&lt;/content>
 &lt;/item>
 &lt;item z-index="1" type="QGraphicsTextItem">
  &lt;position x="177" y="413">
   &lt;transform>1,0,0,0,1,0,0,0,1&lt;/transform>
  &lt;/position>
  &lt;content font-italic="0" letter-spacing="0" font-weight="75" box-height="72" font-outline-color="0,0,0,255" shadow="0;#64000000;3;3;3" font="Input Mono" font-underline="0" font-outline="0.2" font-pixel-size="60" line-spacing="0" box-width="1565.05" font-color="136,138,133,255" alignment="1">Blender + Mandelbulber integration system&lt;/content>
 &lt;/item>
 &lt;item z-index="0" type="QGraphicsTextItem">
  &lt;position x="219" y="185">
   &lt;transform>1,0,0,0,1,0,0,0,1&lt;/transform>
  &lt;/position>
  &lt;content font-italic="0" letter-spacing="0" font-weight="75" box-height="216" font-outline-color="0,0,0,255" shadow="0;#64000000;3;3;3" font="Input Mono" font-underline="0" font-outline="0.2" font-pixel-size="180" line-spacing="0" box-width="1488.91" font-color="136,138,133,255" alignment="1">Blenderbulber&lt;/content>
 &lt;/item>
 &lt;startviewport rect="0,0,1920,1080"/>
 &lt;endviewport rect="0,0,1920,1080"/>
 &lt;background color="0,0,0,255"/>
&lt;/kdenlivetitle>
</property>
  <property name="kdenlive:duration">150</property>
  <property name="force_reload">0</property>
  <property name="meta.media.width">1920</property>
  <property name="meta.media.height">1080</property>
  <property name="kdenlive:file_hash">7c026d94eec22d62cd0aac3c30d0be09</property>
 </producer>
 <producer id="8" title="Anonymous Submission" out="149" in="0">
  <property name="length">150</property>
  <property name="eof">pause</property>
  <property name="resource"/>
  <property name="progressive">1</property>
  <property name="aspect_ratio">1</property>
  <property name="seekable">1</property>
  <property name="mlt_service">kdenlivetitle</property>
  <property name="kdenlive:clipname">Title clip</property>
  <property name="kdenlive:folderid">-1</property>
  <property name="xmldata">&lt;kdenlivetitle width="1920" duration="150" out="150" height="1080" LC_NUMERIC="ru_RU.UTF-8">
 &lt;item z-index="0" type="QGraphicsTextItem">
  &lt;position x="171" y="149">
   &lt;transform>1,0,0,0,1,0,0,0,1&lt;/transform>
  &lt;/position>
  &lt;content font-italic="0" letter-spacing="0" font-weight="75" box-height="96" font-outline-color="0,0,0,255" shadow="0;#64000000;3;3;3" font="Input Mono" font-underline="0" font-outline="2" font-pixel-size="80" line-spacing="0" box-width="1578.09" font-color="164,0,0,255" alignment="1">Lets make a proxy Blender scene&lt;/content>
 &lt;/item>
 &lt;item z-index="-1" type="QGraphicsRectItem">
  &lt;position x="-93" y="100">
   &lt;transform zoom="100">1,0,0,0,1,0,0,0,1&lt;/transform>
  &lt;/position>
  &lt;content rect="0,0,2107.35,191.686" penwidth="4" brushcolor="136,138,133,255" pencolor="0,0,0,255"/>
 &lt;/item>
 &lt;startviewport rect="0,0,1920,1080"/>
 &lt;endviewport rect="0,0,1920,1080"/>
 &lt;background color="0,0,0,0"/>
&lt;/kdenlivetitle>
</property>
  <property name="kdenlive:duration">150</property>
  <property name="force_reload">0</property>
  <property name="meta.media.width">1920</property>
  <property name="meta.media.height">1080</property>
  <property name="kdenlive:file_hash">fc56d590516c9048510d919eed13f1d9</property>
  <property name="global_feed">1</property>
 </producer>
 <producer id="9" title="Anonymous Submission" out="149" in="0">
  <property name="length">150</property>
  <property name="eof">pause</property>
  <property name="resource"/>
  <property name="progressive">1</property>
  <property name="aspect_ratio">1</property>
  <property name="seekable">1</property>
  <property name="mlt_service">kdenlivetitle</property>
  <property name="kdenlive:clipname">Title clip (copy)</property>
  <property name="kdenlive:folderid">-1</property>
  <property name="xmldata">&lt;kdenlivetitle width="1920" duration="150" out="150" height="1080" LC_NUMERIC="ru_RU.UTF-8">
 &lt;item z-index="0" type="QGraphicsTextItem">
  &lt;position x="301" y="162">
   &lt;transform>1,0,0,0,1,0,0,0,1&lt;/transform>
  &lt;/position>
  &lt;content font-italic="0" letter-spacing="0" font-weight="75" box-height="60" font-outline-color="0,0,0,255" shadow="0;#64000000;3;3;3" font="Input Mono" font-underline="0" font-outline="2" font-pixel-size="50" line-spacing="0" box-width="1272.5" font-color="164,0,0,255" alignment="1">Using a bounding box instead of fractal &lt;/content>
 &lt;/item>
 &lt;item z-index="-1" type="QGraphicsRectItem">
  &lt;position x="-90" y="100">
   &lt;transform zoom="100">1,0,0,0,1,0,0,0,1&lt;/transform>
  &lt;/position>
  &lt;content rect="0,0,2107.35,191.686" penwidth="4" brushcolor="136,138,133,255" pencolor="0,0,0,255"/>
 &lt;/item>
 &lt;startviewport rect="0,0,1920,1080"/>
 &lt;endviewport rect="0,0,1920,1080"/>
 &lt;background color="0,0,0,0"/>
&lt;/kdenlivetitle>
</property>
  <property name="kdenlive:duration">150</property>
  <property name="force_reload">0</property>
  <property name="kdenlive:file_hash">fc56d590516c9048510d919eed13f1d9</property>
  <property name="global_feed">1</property>
  <property name="meta.media.width">1920</property>
  <property name="meta.media.height">1080</property>
 </producer>
 <producer id="10" title="Anonymous Submission" out="619" in="0">
  <property name="length">620</property>
  <property name="eof">pause</property>
  <property name="resource"/>
  <property name="progressive">1</property>
  <property name="aspect_ratio">1</property>
  <property name="seekable">1</property>
  <property name="mlt_service">kdenlivetitle</property>
  <property name="kdenlive:clipname">Title clip (copy) (copy)</property>
  <property name="kdenlive:folderid">-1</property>
  <property name="xmldata">&lt;kdenlivetitle width="1920" duration="150" out="150" height="1080" LC_NUMERIC="ru_RU.UTF-8">
 &lt;item z-index="2" type="QGraphicsTextItem">
  &lt;position x="556" y="242">
   &lt;transform>1,0,0,0,1,0,0,0,1&lt;/transform>
  &lt;/position>
  &lt;content font-italic="0" letter-spacing="0" font-weight="75" box-height="30" font-outline-color="0,0,0,255" shadow="0;#64000000;3;3;3" font="Input Mono" font-underline="0" font-outline="0.5" font-pixel-size="25" box-width="843.031" font-color="0,0,0,255" alignment="1">In production releases this will happen automatically&lt;/content>
 &lt;/item>
 &lt;item z-index="1" type="QGraphicsTextItem">
  &lt;position x="445" y="197">
   &lt;transform>1,0,0,0,1,0,0,0,1&lt;/transform>
  &lt;/position>
  &lt;content font-italic="0" letter-spacing="0" font-weight="75" box-height="30" font-outline-color="0,0,0,255" shadow="0;#64000000;3;3;3" font="Input Mono" font-underline="0" font-outline="0.5" font-pixel-size="25" line-spacing="0" box-width="1049.81" font-color="0,0,0,255" alignment="1">Create empty and setting up "track to" constraint in camera object&lt;/content>
 &lt;/item>
 &lt;item z-index="0" type="QGraphicsTextItem">
  &lt;position x="562" y="129">
   &lt;transform>1,0,0,0,1,0,0,0,1&lt;/transform>
  &lt;/position>
  &lt;content font-italic="0" letter-spacing="0" font-weight="75" box-height="60" font-outline-color="0,0,0,255" shadow="0;#64000000;3;3;3" font="Input Mono" font-underline="0" font-outline="2" font-pixel-size="50" line-spacing="0" box-width="795.313" font-color="164,0,0,255" alignment="1">Make camera target object&lt;/content>
 &lt;/item>
 &lt;item z-index="-1" type="QGraphicsRectItem">
  &lt;position x="-90" y="100">
   &lt;transform zoom="100">1,0,0,0,1,0,0,0,1&lt;/transform>
  &lt;/position>
  &lt;content rect="0,0,2107.35,191.686" penwidth="4" brushcolor="136,138,133,255" pencolor="0,0,0,255"/>
 &lt;/item>
 &lt;startviewport rect="0,0,1920,1080"/>
 &lt;endviewport rect="0,0,1920,1080"/>
 &lt;background color="0,0,0,0"/>
&lt;/kdenlivetitle>
</property>
  <property name="kdenlive:duration">150</property>
  <property name="force_reload">0</property>
  <property name="kdenlive:file_hash">fc56d590516c9048510d919eed13f1d9</property>
  <property name="global_feed">1</property>
  <property name="meta.media.width">1920</property>
  <property name="meta.media.height">1080</property>
 </producer>
 <producer id="11" title="Anonymous Submission" out="292" in="0">
  <property name="length">293</property>
  <property name="eof">pause</property>
  <property name="resource"/>
  <property name="progressive">1</property>
  <property name="aspect_ratio">1</property>
  <property name="seekable">1</property>
  <property name="mlt_service">kdenlivetitle</property>
  <property name="kdenlive:clipname">Title clip (copy) (copy)</property>
  <property name="kdenlive:folderid">-1</property>
  <property name="xmldata">&lt;kdenlivetitle width="1920" duration="150" out="150" height="1080" LC_NUMERIC="ru_RU.UTF-8">
 &lt;item z-index="0" type="QGraphicsTextItem">
  &lt;position x="387" y="165">
   &lt;transform>1,0,0,0,1,0,0,0,1&lt;/transform>
  &lt;/position>
  &lt;content font-italic="0" letter-spacing="0" font-weight="75" box-height="60" font-outline-color="0,0,0,255" shadow="0;#64000000;3;3;3" font="Input Mono" font-underline="0" font-outline="2" font-pixel-size="50" line-spacing="0" box-width="1145.25" font-color="164,0,0,255" alignment="1">We have a skeleton Blender scene now&lt;/content>
 &lt;/item>
 &lt;item z-index="-1" type="QGraphicsRectItem">
  &lt;position x="-90" y="100">
   &lt;transform zoom="100">1,0,0,0,1,0,0,0,1&lt;/transform>
  &lt;/position>
  &lt;content rect="0,0,2107.35,191.686" penwidth="4" brushcolor="136,138,133,255" pencolor="0,0,0,255"/>
 &lt;/item>
 &lt;startviewport rect="0,0,1920,1080"/>
 &lt;endviewport rect="0,0,1920,1080"/>
 &lt;background color="0,0,0,0"/>
&lt;/kdenlivetitle>
</property>
  <property name="kdenlive:duration">150</property>
  <property name="force_reload">0</property>
  <property name="kdenlive:file_hash">fc56d590516c9048510d919eed13f1d9</property>
  <property name="global_feed">1</property>
  <property name="meta.media.width">1920</property>
  <property name="meta.media.height">1080</property>
 </producer>
 <producer id="12" title="Anonymous Submission" out="292" in="0">
  <property name="length">293</property>
  <property name="eof">pause</property>
  <property name="resource"/>
  <property name="progressive">1</property>
  <property name="aspect_ratio">1</property>
  <property name="seekable">1</property>
  <property name="mlt_service">kdenlivetitle</property>
  <property name="kdenlive:clipname">Title clip (copy) (copy) (copy)</property>
  <property name="kdenlive:folderid">-1</property>
  <property name="xmldata">&lt;kdenlivetitle width="1920" duration="150" out="150" height="1080" LC_NUMERIC="ru_RU.UTF-8">
 &lt;item z-index="0" type="QGraphicsTextItem">
  &lt;position x="324" y="165">
   &lt;transform>1,0,0,0,1,0,0,0,1&lt;/transform>
  &lt;/position>
  &lt;content font-italic="0" letter-spacing="0" font-weight="75" box-height="60" font-outline-color="0,0,0,255" shadow="0;#64000000;3;3;3" font="Input Mono" font-underline="0" font-outline="2" font-pixel-size="50" line-spacing="0" box-width="1272.5" font-color="164,0,0,255" alignment="1">Setting up animation frame range (0-200)&lt;/content>
 &lt;/item>
 &lt;item z-index="-1" type="QGraphicsRectItem">
  &lt;position x="-90" y="100">
   &lt;transform zoom="100">1,0,0,0,1,0,0,0,1&lt;/transform>
  &lt;/position>
  &lt;content rect="0,0,2107.35,191.686" penwidth="4" brushcolor="136,138,133,255" pencolor="0,0,0,255"/>
 &lt;/item>
 &lt;startviewport rect="0,0,1920,1080"/>
 &lt;endviewport rect="0,0,1920,1080"/>
 &lt;background color="0,0,0,0"/>
&lt;/kdenlivetitle>
</property>
  <property name="kdenlive:duration">150</property>
  <property name="force_reload">0</property>
  <property name="kdenlive:file_hash">fc56d590516c9048510d919eed13f1d9</property>
  <property name="global_feed">1</property>
  <property name="meta.media.width">1920</property>
  <property name="meta.media.height">1080</property>
 </producer>
 <producer id="13" title="Anonymous Submission" out="292" in="0">
  <property name="length">293</property>
  <property name="eof">pause</property>
  <property name="resource"/>
  <property name="progressive">1</property>
  <property name="aspect_ratio">1</property>
  <property name="seekable">1</property>
  <property name="mlt_service">kdenlivetitle</property>
  <property name="kdenlive:clipname">Title clip (copy) (copy) (copy) (copy)</property>
  <property name="kdenlive:folderid">-1</property>
  <property name="xmldata">&lt;kdenlivetitle width="1920" duration="150" out="150" height="1080" LC_NUMERIC="ru_RU.UTF-8">
 &lt;item z-index="1" type="QGraphicsTextItem">
  &lt;position x="416" y="216">
   &lt;transform>1,0,0,0,1,0,0,0,1&lt;/transform>
  &lt;/position>
  &lt;content font-italic="0" letter-spacing="0" font-weight="75" box-height="36" font-outline-color="0,0,0,255" shadow="0;#64000000;3;3;3" font="Input Mono" font-underline="0" font-outline="1" font-pixel-size="30" line-spacing="0" box-width="1087.45" font-color="164,0,0,255" alignment="1">Feel free to use any Blender animation tools and features&lt;/content>
 &lt;/item>
 &lt;item z-index="0" type="QGraphicsTextItem">
  &lt;position x="273" y="143">
   &lt;transform>1,0,0,0,1,0,0,0,1&lt;/transform>
  &lt;/position>
  &lt;content font-italic="0" letter-spacing="0" font-weight="75" box-height="48" font-outline-color="0,0,0,255" shadow="0;#64000000;3;3;3" font="Input Mono" font-underline="0" font-outline="2" font-pixel-size="40" line-spacing="0" box-width="1374.47" font-color="164,0,0,255" alignment="1">Now we produce some camera and camera target animation&lt;/content>
 &lt;/item>
 &lt;item z-index="-1" type="QGraphicsRectItem">
  &lt;position x="-90" y="100">
   &lt;transform zoom="100">1,0,0,0,1,0,0,0,1&lt;/transform>
  &lt;/position>
  &lt;content rect="0,0,2107.35,191.686" penwidth="4" brushcolor="136,138,133,255" pencolor="0,0,0,255"/>
 &lt;/item>
 &lt;startviewport rect="0,0,1920,1080"/>
 &lt;endviewport rect="0,0,1920,1080"/>
 &lt;background color="0,0,0,0"/>
&lt;/kdenlivetitle>
</property>
  <property name="kdenlive:duration">150</property>
  <property name="force_reload">0</property>
  <property name="kdenlive:file_hash">fc56d590516c9048510d919eed13f1d9</property>
  <property name="global_feed">1</property>
  <property name="meta.media.width">1920</property>
  <property name="meta.media.height">1080</property>
 </producer>
 <producer id="14" title="Anonymous Submission" out="292" in="0">
  <property name="length">293</property>
  <property name="eof">pause</property>
  <property name="resource"/>
  <property name="progressive">1</property>
  <property name="aspect_ratio">1</property>
  <property name="seekable">1</property>
  <property name="mlt_service">kdenlivetitle</property>
  <property name="kdenlive:clipname">Title clip (copy) (copy) (copy) (copy)</property>
  <property name="kdenlive:folderid">-1</property>
  <property name="xmldata">&lt;kdenlivetitle width="1920" duration="150" out="150" height="1080" LC_NUMERIC="ru_RU.UTF-8">
 &lt;item z-index="0" type="QGraphicsTextItem">
  &lt;position x="247" y="165">
   &lt;transform>1,0,0,0,1,0,0,0,1&lt;/transform>
  &lt;/position>
  &lt;content font-italic="0" letter-spacing="0" font-weight="75" box-height="48" font-outline-color="0,0,0,255" shadow="0;#64000000;3;3;3" font="Input Mono" font-underline="0" font-outline="2" font-pixel-size="40" line-spacing="0" box-width="1425.38" font-color="164,0,0,255" alignment="1">Now render this animation for demonstration sample video&lt;/content>
 &lt;/item>
 &lt;item z-index="-1" type="QGraphicsRectItem">
  &lt;position x="-90" y="100">
   &lt;transform zoom="100">1,0,0,0,1,0,0,0,1&lt;/transform>
  &lt;/position>
  &lt;content rect="0,0,2107.35,191.686" penwidth="4" brushcolor="136,138,133,255" pencolor="0,0,0,255"/>
 &lt;/item>
 &lt;startviewport rect="0,0,1920,1080"/>
 &lt;endviewport rect="0,0,1920,1080"/>
 &lt;background color="0,0,0,0"/>
&lt;/kdenlivetitle>
</property>
  <property name="kdenlive:duration">150</property>
  <property name="force_reload">0</property>
  <property name="kdenlive:file_hash">fc56d590516c9048510d919eed13f1d9</property>
  <property name="global_feed">1</property>
  <property name="meta.media.width">1920</property>
  <property name="meta.media.height">1080</property>
 </producer>
 <producer id="15" title="Anonymous Submission" out="292" in="0">
  <property name="length">293</property>
  <property name="eof">pause</property>
  <property name="resource"/>
  <property name="progressive">1</property>
  <property name="aspect_ratio">1</property>
  <property name="seekable">1</property>
  <property name="mlt_service">kdenlivetitle</property>
  <property name="kdenlive:clipname">Title clip (copy) (copy) (copy) (copy) (copy)</property>
  <property name="kdenlive:folderid">-1</property>
  <property name="xmldata">&lt;kdenlivetitle width="1920" duration="150" out="150" height="1080" LC_NUMERIC="ru_RU.UTF-8">
 &lt;item z-index="4" type="QGraphicsTextItem">
  &lt;position x="664" y="219">
   &lt;transform>1,0,0,0,1,0,0,0,1&lt;/transform>
  &lt;/position>
  &lt;content font-italic="0" letter-spacing="0" font-weight="75" box-height="36" font-outline-color="0,0,0,255" shadow="0;#64000000;3;3;3" font="Input Mono" font-underline="0" font-outline="2" font-pixel-size="30" line-spacing="0" box-width="591.422" font-color="164,0,0,255" alignment="1">Blenderbulber has no UI, yet ))&lt;/content>
 &lt;/item>
 &lt;item z-index="0" type="QGraphicsTextItem">
  &lt;position x="553" y="149">
   &lt;transform>1,0,0,0,1,0,0,0,1&lt;/transform>
  &lt;/position>
  &lt;content font-italic="0" letter-spacing="0" font-weight="75" box-height="48" font-outline-color="0,0,0,255" shadow="0;#64000000;3;3;3" font="Input Mono" font-underline="0" font-outline="2" font-pixel-size="40" line-spacing="0" box-width="814.5" font-color="164,0,0,255" alignment="1">Some python scripting magic here&lt;/content>
 &lt;/item>
 &lt;item z-index="-1" type="QGraphicsRectItem">
  &lt;position x="-93" y="100">
   &lt;transform zoom="100">1,0,0,0,1,0,0,0,1&lt;/transform>
  &lt;/position>
  &lt;content rect="0,0,2107.35,191.686" penwidth="4" brushcolor="136,138,133,255" pencolor="0,0,0,255"/>
 &lt;/item>
 &lt;startviewport rect="0,0,1920,1080"/>
 &lt;endviewport rect="0,0,1920,1080"/>
 &lt;background color="0,0,0,0"/>
&lt;/kdenlivetitle>
</property>
  <property name="kdenlive:duration">150</property>
  <property name="force_reload">0</property>
  <property name="kdenlive:file_hash">fc56d590516c9048510d919eed13f1d9</property>
  <property name="global_feed">1</property>
  <property name="meta.media.width">1920</property>
  <property name="meta.media.height">1080</property>
 </producer>
 <producer id="16" title="Anonymous Submission" out="292" in="0">
  <property name="length">293</property>
  <property name="eof">pause</property>
  <property name="resource"/>
  <property name="progressive">1</property>
  <property name="aspect_ratio">1</property>
  <property name="seekable">1</property>
  <property name="mlt_service">kdenlivetitle</property>
  <property name="kdenlive:clipname">Title clip (copy) (copy) (copy) (copy) (copy) (copy)</property>
  <property name="kdenlive:folderid">-1</property>
  <property name="xmldata">&lt;kdenlivetitle width="1920" duration="150" out="150" height="1080" LC_NUMERIC="ru_RU.UTF-8">
 &lt;item z-index="4" type="QGraphicsTextItem">
  &lt;position x="578" y="219">
   &lt;transform>1,0,0,0,1,0,0,0,1&lt;/transform>
  &lt;/position>
  &lt;content font-italic="0" letter-spacing="0" font-weight="75" box-height="36" font-outline-color="0,0,0,255" shadow="0;#64000000;3;3;3" font="Input Mono" font-underline="0" font-outline="2" font-pixel-size="30" line-spacing="0" box-width="763.125" font-color="164,0,0,255" alignment="1">It can be used in any Mandelbulber scene&lt;/content>
 &lt;/item>
 &lt;item z-index="0" type="QGraphicsTextItem">
  &lt;position x="273" y="149">
   &lt;transform>1,0,0,0,1,0,0,0,1&lt;/transform>
  &lt;/position>
  &lt;content font-italic="0" letter-spacing="0" font-weight="75" box-height="48" font-outline-color="0,0,0,255" shadow="0;#64000000;3;3;3" font="Input Mono" font-underline="0" font-outline="2" font-pixel-size="40" line-spacing="0" box-width="1374.47" font-color="164,0,0,255" alignment="1">Script produce Mandelbulber animation parameters block&lt;/content>
 &lt;/item>
 &lt;item z-index="-1" type="QGraphicsRectItem">
  &lt;position x="-93" y="100">
   &lt;transform zoom="100">1,0,0,0,1,0,0,0,1&lt;/transform>
  &lt;/position>
  &lt;content rect="0,0,2107.35,191.686" penwidth="4" brushcolor="136,138,133,255" pencolor="0,0,0,255"/>
 &lt;/item>
 &lt;startviewport rect="0,0,1920,1080"/>
 &lt;endviewport rect="0,0,1920,1080"/>
 &lt;background color="0,0,0,0"/>
&lt;/kdenlivetitle>
</property>
  <property name="kdenlive:duration">150</property>
  <property name="force_reload">0</property>
  <property name="kdenlive:file_hash">fc56d590516c9048510d919eed13f1d9</property>
  <property name="global_feed">1</property>
  <property name="meta.media.width">1920</property>
  <property name="meta.media.height">1080</property>
 </producer>
 <producer id="17" title="Anonymous Submission" out="292" in="0">
  <property name="length">293</property>
  <property name="eof">pause</property>
  <property name="resource"/>
  <property name="progressive">1</property>
  <property name="aspect_ratio">1</property>
  <property name="seekable">1</property>
  <property name="mlt_service">kdenlivetitle</property>
  <property name="kdenlive:clipname">Title clip (copy) (copy) (copy) (copy) (copy) (copy) (copy)</property>
  <property name="kdenlive:folderid">-1</property>
  <property name="xmldata">&lt;kdenlivetitle width="1920" duration="150" out="150" height="1080" LC_NUMERIC="ru_RU.UTF-8">
 &lt;item z-index="0" type="QGraphicsTextItem">
  &lt;position x="324" y="149">
   &lt;transform>1,0,0,0,1,0,0,0,1&lt;/transform>
  &lt;/position>
  &lt;content font-italic="0" letter-spacing="0" font-weight="75" box-height="96" font-outline-color="0,0,0,255" shadow="0;#64000000;3;3;3" font="Input Mono" font-underline="0" font-outline="2" font-pixel-size="40" line-spacing="0" box-width="1272.66" font-color="164,0,0,255" alignment="4">Now load this animation to some Mandelbulber scene
and render second sample video&lt;/content>
 &lt;/item>
 &lt;item z-index="-1" type="QGraphicsRectItem">
  &lt;position x="-93" y="100">
   &lt;transform zoom="100">1,0,0,0,1,0,0,0,1&lt;/transform>
  &lt;/position>
  &lt;content rect="0,0,2107.35,191.686" penwidth="4" brushcolor="136,138,133,255" pencolor="0,0,0,255"/>
 &lt;/item>
 &lt;startviewport rect="0,0,1920,1080"/>
 &lt;endviewport rect="0,0,1920,1080"/>
 &lt;background color="0,0,0,0"/>
&lt;/kdenlivetitle>
</property>
  <property name="kdenlive:duration">150</property>
  <property name="force_reload">0</property>
  <property name="kdenlive:file_hash">fc56d590516c9048510d919eed13f1d9</property>
  <property name="global_feed">1</property>
  <property name="meta.media.width">1920</property>
  <property name="meta.media.height">1080</property>
 </producer>
 <producer id="18" title="Anonymous Submission" out="292" in="0">
  <property name="length">293</property>
  <property name="eof">pause</property>
  <property name="resource"/>
  <property name="progressive">1</property>
  <property name="aspect_ratio">1</property>
  <property name="seekable">1</property>
  <property name="mlt_service">kdenlivetitle</property>
  <property name="kdenlive:clipname">Title clip (copy) (copy) (copy) (copy) (copy) (copy) (copy) (copy)</property>
  <property name="kdenlive:folderid">-1</property>
  <property name="xmldata">&lt;kdenlivetitle width="1920" duration="150" out="150" height="1080" LC_NUMERIC="ru_RU.UTF-8">
 &lt;item z-index="0" type="QGraphicsTextItem">
  &lt;position x="349" y="173">
   &lt;transform>1,0,0,0,1,0,0,0,1&lt;/transform>
  &lt;/position>
  &lt;content font-italic="0" letter-spacing="0" font-weight="75" box-height="48" font-outline-color="0,0,0,255" shadow="0;#64000000;3;3;3" font="Input Mono" font-underline="0" font-outline="2" font-pixel-size="40" line-spacing="0" box-width="1221.75" font-color="164,0,0,255" alignment="4">I have prepared an example. Its rendering now...&lt;/content>
 &lt;/item>
 &lt;item z-index="-1" type="QGraphicsRectItem">
  &lt;position x="-93" y="100">
   &lt;transform zoom="100">1,0,0,0,1,0,0,0,1&lt;/transform>
  &lt;/position>
  &lt;content rect="0,0,2107.35,191.686" penwidth="4" brushcolor="136,138,133,255" pencolor="0,0,0,255"/>
 &lt;/item>
 &lt;startviewport rect="0,0,1920,1080"/>
 &lt;endviewport rect="0,0,1920,1080"/>
 &lt;background color="0,0,0,0"/>
&lt;/kdenlivetitle>
</property>
  <property name="kdenlive:duration">150</property>
  <property name="force_reload">0</property>
  <property name="kdenlive:file_hash">fc56d590516c9048510d919eed13f1d9</property>
  <property name="global_feed">1</property>
  <property name="meta.media.width">1920</property>
  <property name="meta.media.height">1080</property>
 </producer>
 <producer id="19" title="Anonymous Submission" out="244" in="0">
  <property name="length">00:00:08:05</property>
  <property name="eof">pause</property>
  <property name="resource">/home/psyriccio/.cache/kdenlive/proxy/8e692e2facc8797a9b26b29399cf84c3.mpg</property>
  <property name="meta.media.nb_streams">2</property>
  <property name="meta.media.0.stream.type">video</property>
  <property name="meta.media.0.stream.frame_rate">240</property>
  <property name="meta.media.0.stream.sample_aspect_ratio">0</property>
  <property name="meta.media.0.codec.width">640</property>
  <property name="meta.media.0.codec.height">360</property>
  <property name="meta.media.0.codec.rotate">0</property>
  <property name="meta.media.0.codec.frame_rate">240</property>
  <property name="meta.media.0.codec.pix_fmt">yuv422p</property>
  <property name="meta.media.0.codec.sample_aspect_ratio">1</property>
  <property name="meta.media.0.codec.colorspace">601</property>
  <property name="meta.media.0.codec.name">mpeg2video</property>
  <property name="meta.media.0.codec.long_name">MPEG-2 video</property>
  <property name="meta.media.0.codec.bit_rate">0</property>
  <property name="meta.media.1.stream.type">audio</property>
  <property name="meta.media.1.codec.sample_fmt">s16p</property>
  <property name="meta.media.1.codec.sample_rate">48000</property>
  <property name="meta.media.1.codec.channels">2</property>
  <property name="meta.media.1.codec.name">mp2</property>
  <property name="meta.media.1.codec.long_name">MP2 (MPEG audio layer 2)</property>
  <property name="meta.media.1.codec.bit_rate">128000</property>
  <property name="seekable">1</property>
  <property name="meta.media.sample_aspect_num">1</property>
  <property name="meta.media.sample_aspect_den">1</property>
  <property name="aspect_ratio">1</property>
  <property name="audio_index">1</property>
  <property name="video_index">0</property>
  <property name="mute_on_pause">1</property>
  <property name="mlt_service">avformat</property>
  <property name="meta.attr.0.stream.DURATION.markup">00:00:08,033000000</property>
  <property name="meta.attr.1.stream.DURATION.markup">00:00:08,160000000</property>
  <property name="meta.attr.ENCODER.markup">Lavf57.56.100</property>
  <property name="kdenlive:folderid">-1</property>
  <property name="meta.media.frame_rate_num">240</property>
  <property name="meta.media.frame_rate_den">1</property>
  <property name="meta.media.colorspace">601</property>
  <property name="meta.media.color_trc">2</property>
  <property name="meta.media.width">640</property>
  <property name="meta.media.height">360</property>
  <property name="meta.media.top_field_first">0</property>
  <property name="meta.media.progressive">1</property>
  <property name="kdenlive:file_size">324955032</property>
  <property name="kdenlive:file_hash">8e692e2facc8797a9b26b29399cf84c3</property>
  <property name="kdenlive:proxy">/home/psyriccio/.cache/kdenlive/proxy/8e692e2facc8797a9b26b29399cf84c3.mpg</property>
  <property name="proxy_out">244</property>
  <property name="kdenlive:originalurl">/home/psyriccio/prj/blenderbulber/test1_out.mkv</property>
  <property name="global_feed">1</property>
  <property name="kdenlive:meta.media.nb_streams">2</property>
  <property name="kdenlive:meta.media.0.stream.type">video</property>
  <property name="kdenlive:meta.media.0.stream.frame_rate">1000</property>
  <property name="kdenlive:meta.media.0.stream.sample_aspect_ratio">1</property>
  <property name="kdenlive:meta.media.0.codec.width">1920</property>
  <property name="kdenlive:meta.media.0.codec.height">1080</property>
  <property name="kdenlive:meta.media.0.codec.rotate">0</property>
  <property name="kdenlive:meta.media.0.codec.frame_rate">1000</property>
  <property name="kdenlive:meta.media.0.codec.pix_fmt">yuv422p</property>
  <property name="kdenlive:meta.media.0.codec.sample_aspect_ratio">0</property>
  <property name="kdenlive:meta.media.0.codec.colorspace">709</property>
  <property name="kdenlive:meta.media.0.codec.name">huffyuv</property>
  <property name="kdenlive:meta.media.0.codec.long_name">Huffyuv / HuffYUV</property>
  <property name="kdenlive:meta.media.0.codec.bit_rate">0</property>
  <property name="kdenlive:meta.attr.0.stream.DURATION.markup">00:00:08,033000000</property>
  <property name="kdenlive:meta.media.1.stream.type">audio</property>
  <property name="kdenlive:meta.media.1.codec.sample_fmt">s16</property>
  <property name="kdenlive:meta.media.1.codec.sample_rate">48000</property>
  <property name="kdenlive:meta.media.1.codec.channels">2</property>
  <property name="kdenlive:meta.media.1.codec.name">flac</property>
  <property name="kdenlive:meta.media.1.codec.long_name">FLAC (Free Lossless Audio Codec)</property>
  <property name="kdenlive:meta.media.1.codec.bit_rate">0</property>
  <property name="kdenlive:meta.attr.1.stream.DURATION.markup">00:00:08,160000000</property>
  <property name="kdenlive:meta.attr.ENCODER.markup">Lavf57.56.100</property>
  <property name="kdenlive:meta.media.sample_aspect_num">1</property>
  <property name="kdenlive:meta.media.sample_aspect_den">1</property>
  <property name="kdenlive:meta.media.frame_rate_num">1000</property>
  <property name="kdenlive:meta.media.frame_rate_den">1</property>
  <property name="kdenlive:meta.media.colorspace">709</property>
  <property name="kdenlive:meta.media.color_trc">2</property>
  <property name="kdenlive:meta.media.width">1920</property>
  <property name="kdenlive:meta.media.height">1080</property>
  <property name="kdenlive:meta.media.top_field_first">0</property>
  <property name="kdenlive:meta.media.progressive">1</property>
 </producer>
 <producer id="20" out="149" in="0">
  <property name="length">150</property>
  <property name="eof">pause</property>
  <property name="resource">/home/psyriccio/prj/blenderbulber/frame0.png</property>
  <property name="ttl">25</property>
  <property name="aspect_ratio">1</property>
  <property name="progressive">1</property>
  <property name="seekable">1</property>
  <property name="loop">1</property>
  <property name="meta.media.width">1920</property>
  <property name="meta.media.height">1080</property>
  <property name="mlt_service">pixbuf</property>
  <property name="kdenlive:folderid">-1</property>
  <property name="kdenlive:duration">150</property>
  <property name="kdenlive:file_size">744780</property>
  <property name="kdenlive:file_hash">239efb919a58af2dc002c8883ff36a1d</property>
 </producer>
 <producer id="21" out="149" in="0">
  <property name="length">150</property>
  <property name="eof">pause</property>
  <property name="resource">/home/psyriccio/ava.png</property>
  <property name="ttl">25</property>
  <property name="aspect_ratio">1</property>
  <property name="progressive">1</property>
  <property name="seekable">1</property>
  <property name="loop">1</property>
  <property name="meta.media.width">360</property>
  <property name="meta.media.height">360</property>
  <property name="mlt_service">pixbuf</property>
  <property name="kdenlive:folderid">-1</property>
  <property name="kdenlive:duration">150</property>
  <property name="kdenlive:file_size">218910</property>
  <property name="kdenlive:file_hash">533f9d2f6f8d1dbecedb4a29b34755b6</property>
 </producer>
 <producer id="22" title="Anonymous Submission" out="440" in="0">
  <property name="length">441</property>
  <property name="eof">pause</property>
  <property name="resource"/>
  <property name="progressive">1</property>
  <property name="aspect_ratio">1</property>
  <property name="seekable">1</property>
  <property name="mlt_service">kdenlivetitle</property>
  <property name="kdenlive:clipname">Title clip</property>
  <property name="kdenlive:folderid">-1</property>
  <property name="xmldata">&lt;kdenlivetitle width="1920" duration="150" out="150" height="1080" LC_NUMERIC="ru_RU.UTF-8">
 &lt;item z-index="3" type="QGraphicsTextItem">
  &lt;position x="493" y="985">
   &lt;transform>1,0,0,0,1,0,0,0,1&lt;/transform>
  &lt;/position>
  &lt;content font-italic="0" letter-spacing="0" font-weight="75" box-height="36" shadow="0;#64000000;3;3;3" font="Input Mono" font-underline="0" font-pixel-size="30" line-spacing="0" box-width="934.828" font-color="85,87,83,255" alignment="1">Music: Damian L - Acid Voyage (www.ektoplazm.com)&lt;/content>
 &lt;/item>
 &lt;item z-index="2" type="QGraphicsTextItem">
  &lt;position x="515" y="663">
   &lt;transform>1,0,0,0,1,0,0,0,1&lt;/transform>
  &lt;/position>
  &lt;content font-italic="0" letter-spacing="0" font-weight="75" box-height="60" shadow="0;#64000000;3;3;3" font="Input Mono" font-underline="0" font-pixel-size="50" line-spacing="0" box-width="890.75" font-color="85,170,255,255" alignment="1">https://github.com/psyriccio&lt;/content>
 &lt;/item>
 &lt;item z-index="0" type="QGraphicsPixmapItem">
  &lt;position x="779" y="219">
   &lt;transform>1,0,0,0,1,0,0,0,1&lt;/transform>
  &lt;/position>
  &lt;content url="/home/psyriccio/prj/blenderbulber/a.png"/>
 &lt;/item>
 &lt;startviewport rect="0,0,1920,1080"/>
 &lt;endviewport rect="0,0,1920,1080"/>
 &lt;background color="0,0,0,255"/>
&lt;/kdenlivetitle>
</property>
  <property name="kdenlive:duration">150</property>
  <property name="force_reload">0</property>
  <property name="meta.media.width">1920</property>
  <property name="meta.media.height">1080</property>
  <property name="kdenlive:file_hash">3433d1b1627a6db43b3bd1a42fe4374e</property>
  <property name="global_feed">1</property>
 </producer>
 <producer id="24" title="Anonymous Submission" out="15060" in="0">
  <property name="length">00:08:22:01</property>
  <property name="eof">pause</property>
  <property name="resource">/home/psyriccio/prj/blenderbulber/10 - Damian L - Acid Voyage.mp3</property>
  <property name="meta.media.nb_streams">2</property>
  <property name="meta.media.0.stream.type">audio</property>
  <property name="meta.media.0.codec.sample_fmt">s16p</property>
  <property name="meta.media.0.codec.sample_rate">44100</property>
  <property name="meta.media.0.codec.channels">2</property>
  <property name="meta.media.0.codec.name">mp3</property>
  <property name="meta.media.0.codec.long_name">MP3 (MPEG audio layer 3)</property>
  <property name="meta.media.0.codec.bit_rate">320000</property>
  <property name="meta.attr.0.stream.encoder.markup">LAME3.98r</property>
  <property name="meta.media.1.stream.type">video</property>
  <property name="meta.media.1.stream.frame_rate">-nan</property>
  <property name="meta.media.1.stream.sample_aspect_ratio">0</property>
  <property name="meta.media.1.codec.width">600</property>
  <property name="meta.media.1.codec.height">600</property>
  <property name="meta.media.1.codec.rotate">0</property>
  <property name="meta.media.1.codec.frame_rate">90000</property>
  <property name="meta.media.1.codec.pix_fmt">yuvj420p</property>
  <property name="meta.media.1.codec.sample_aspect_ratio">1</property>
  <property name="meta.media.1.codec.colorspace">601</property>
  <property name="meta.media.1.codec.name">mjpeg</property>
  <property name="meta.media.1.codec.long_name">MJPEG (Motion JPEG)</property>
  <property name="meta.media.1.codec.bit_rate">0</property>
  <property name="meta.attr.1.stream.comment.markup">Cover (front)</property>
  <property name="meta.attr.artist.markup">Damian L</property>
  <property name="meta.attr.album.markup">Panta Deus II</property>
  <property name="meta.attr.album_artist.markup">VA</property>
  <property name="meta.attr.title.markup">Acid Voyage</property>
  <property name="meta.attr.track.markup">10</property>
  <property name="meta.attr.TBPM.markup">100</property>
  <property name="meta.attr.genre.markup">Downtempo</property>
  <property name="meta.attr.replaygain_track_gain.markup">-5.20 dB</property>
  <property name="meta.attr.date.markup">2016</property>
  <property name="seekable">1</property>
  <property name="meta.media.sample_aspect_num">240</property>
  <property name="meta.media.sample_aspect_den">240</property>
  <property name="aspect_ratio">1</property>
  <property name="audio_index">0</property>
  <property name="video_index">-1</property>
  <property name="mute_on_pause">1</property>
  <property name="mlt_service">avformat-novalidate</property>
  <property name="kdenlive:folderid">-1</property>
  <property name="kdenlive:file_size">20113408</property>
  <property name="kdenlive:file_hash">340d2dab0eb024ebcfdf1367ecc46af1</property>
  <property name="global_feed">1</property>
 </producer>
 <playlist id="main bin">
  <property name="kdenlive:docproperties.audiotargettrack">2</property>
  <property name="kdenlive:docproperties.dirtypreviewchunks"/>
  <property name="kdenlive:docproperties.disablepreview">0</property>
  <property name="kdenlive:docproperties.documentid">1483992981073</property>
  <property name="kdenlive:docproperties.enableproxy">1</property>
  <property name="kdenlive:docproperties.generateimageproxy">1</property>
  <property name="kdenlive:docproperties.generateproxy">1</property>
  <property name="kdenlive:docproperties.kdenliveversion">16.12.0</property>
  <property name="kdenlive:docproperties.position">4975</property>
  <property name="kdenlive:docproperties.previewchunks"/>
  <property name="kdenlive:docproperties.previewextension"/>
  <property name="kdenlive:docproperties.previewparameters"/>
  <property name="kdenlive:docproperties.profile">atsc_1080p_30</property>
  <property name="kdenlive:docproperties.proxyextension">mpg</property>
  <property name="kdenlive:docproperties.proxyimageminsize">2000</property>
  <property name="kdenlive:docproperties.proxyminsize">1000</property>
  <property name="kdenlive:docproperties.proxyparams">-vf scale=640:-1 -g 5 -qscale 6 -ab 128k -vcodec mpeg2video -acodec mp2</property>
  <property name="kdenlive:docproperties.version">0.95</property>
  <property name="kdenlive:docproperties.verticalzoom">1</property>
  <property name="kdenlive:docproperties.videotargettrack">3</property>
  <property name="kdenlive:docproperties.zonein">0</property>
  <property name="kdenlive:docproperties.zoneout">8758</property>
  <property name="kdenlive:docproperties.zoom">9</property>
  <property name="kdenlive:documentnotes"/>
  <property name="kdenlive:clipgroups"/>
  <property name="kdenlive:docproperties.renderaudioquality">7</property>
  <property name="kdenlive:docproperties.rendercategory">Old-TV definition (DVD...)</property>
  <property name="kdenlive:docproperties.renderendguide">-1</property>
  <property name="kdenlive:docproperties.renderexportaudio">0</property>
  <property name="kdenlive:docproperties.renderguide">0</property>
  <property name="kdenlive:docproperties.renderplay">0</property>
  <property name="kdenlive:docproperties.renderprofile">MPEG4-ASP/MP3 (DivX compatible)</property>
  <property name="kdenlive:docproperties.renderquality">13</property>
  <property name="kdenlive:docproperties.renderratio">1</property>
  <property name="kdenlive:docproperties.renderrescale">0</property>
  <property name="kdenlive:docproperties.renderrescaleheight">180</property>
  <property name="kdenlive:docproperties.renderrescalewidth">320</property>
  <property name="kdenlive:docproperties.renderscanning">0</property>
  <property name="kdenlive:docproperties.renderspeed">1</property>
  <property name="kdenlive:docproperties.renderstartguide">-1</property>
  <property name="kdenlive:docproperties.rendertcoverlay">0</property>
  <property name="kdenlive:docproperties.rendertctype">0</property>
  <property name="kdenlive:docproperties.rendertwopass">0</property>
  <property name="kdenlive:docproperties.renderurl">demo_cam_anim.avi</property>
  <property name="kdenlive:docproperties.renderzone">0</property>
  <property name="xml_retain">1</property>
  <entry out="1616" producer="2" in="0"/>
  <entry out="4887" producer="1" in="0"/>
  <entry out="4534" producer="3" in="0"/>
  <entry out="1756" producer="4" in="0"/>
  <entry out="1859" producer="5" in="0"/>
  <entry out="1799" producer="6" in="0"/>
  <entry out="149" producer="7" in="0"/>
  <entry out="149" producer="8" in="0"/>
  <entry out="149" producer="9" in="0"/>
  <entry out="149" producer="10" in="0"/>
  <entry out="149" producer="11" in="0"/>
  <entry out="292" producer="12" in="0"/>
  <entry out="292" producer="13" in="0"/>
  <entry out="292" producer="14" in="0"/>
  <entry out="292" producer="15" in="0"/>
  <entry out="292" producer="16" in="0"/>
  <entry out="292" producer="17" in="0"/>
  <entry out="292" producer="18" in="0"/>
  <entry out="244" producer="19" in="0"/>
  <entry out="149" producer="20" in="0"/>
  <entry out="149" producer="21" in="0"/>
  <entry out="149" producer="22" in="0"/>
  <entry out="15060" producer="24" in="0"/>
 </playlist>
 <producer id="black" out="15184" in="0">
  <property name="length">15185</property>
  <property name="eof">pause</property>
  <property name="resource">black</property>
  <property name="aspect_ratio">0</property>
  <property name="mlt_service">colour</property>
  <property name="set.test_audio">0</property>
 </producer>
 <playlist id="black_track">
  <entry out="8758" producer="black" in="0"/>
 </playlist>
 <playlist id="playlist1">
  <property name="kdenlive:track_name">Audio 2</property>
  <property name="kdenlive:audio_track">1</property>
 </playlist>
 <producer id="24_playlist2" title="Anonymous Submission" out="15060" in="0">
  <property name="length">00:08:22:01</property>
  <property name="eof">pause</property>
  <property name="resource">/home/psyriccio/prj/blenderbulber/10 - Damian L - Acid Voyage.mp3</property>
  <property name="audio_index">0</property>
  <property name="video_index">-1</property>
  <property name="mute_on_pause">1</property>
  <property name="mlt_service">avformat-novalidate</property>
  <property name="seekable">1</property>
  <property name="aspect_ratio">1</property>
  <property name="kdenlive:folderid">-1</property>
  <property name="kdenlive:file_size">20113408</property>
  <property name="kdenlive:file_hash">340d2dab0eb024ebcfdf1367ecc46af1</property>
  <property name="global_feed">1</property>
  <property name="xml">was here</property>
  <property name="meta.media.nb_streams">2</property>
  <property name="meta.media.0.stream.type">audio</property>
  <property name="meta.media.0.codec.sample_fmt">s16p</property>
  <property name="meta.media.0.codec.sample_rate">44100</property>
  <property name="meta.media.0.codec.channels">2</property>
  <property name="meta.media.0.codec.name">mp3</property>
  <property name="meta.media.0.codec.long_name">MP3 (MPEG audio layer 3)</property>
  <property name="meta.media.0.codec.bit_rate">320000</property>
  <property name="meta.attr.0.stream.encoder.markup">LAME3.98r</property>
  <property name="meta.media.1.stream.type">video</property>
  <property name="meta.media.1.stream.frame_rate">-nan</property>
  <property name="meta.media.1.stream.sample_aspect_ratio">0</property>
  <property name="meta.media.1.codec.width">600</property>
  <property name="meta.media.1.codec.height">600</property>
  <property name="meta.media.1.codec.rotate">0</property>
  <property name="meta.media.1.codec.frame_rate">90000</property>
  <property name="meta.media.1.codec.pix_fmt">yuvj420p</property>
  <property name="meta.media.1.codec.sample_aspect_ratio">1</property>
  <property name="meta.media.1.codec.colorspace">601</property>
  <property name="meta.media.1.codec.name">mjpeg</property>
  <property name="meta.media.1.codec.long_name">MJPEG (Motion JPEG)</property>
  <property name="meta.media.1.codec.bit_rate">0</property>
  <property name="meta.attr.1.stream.comment.markup">Cover (front)</property>
  <property name="meta.attr.artist.markup">Damian L</property>
  <property name="meta.attr.album.markup">Panta Deus II</property>
  <property name="meta.attr.album_artist.markup">VA</property>
  <property name="meta.attr.title.markup">Acid Voyage</property>
  <property name="meta.attr.track.markup">10</property>
  <property name="meta.attr.TBPM.markup">100</property>
  <property name="meta.attr.genre.markup">Downtempo</property>
  <property name="meta.attr.replaygain_track_gain.markup">-5.20 dB</property>
  <property name="meta.attr.date.markup">2016</property>
  <property name="meta.media.sample_aspect_num">240</property>
  <property name="meta.media.sample_aspect_den">240</property>
 </producer>
 <playlist id="playlist2">
  <property name="kdenlive:track_name">Audio 1</property>
  <property name="kdenlive:audio_track">1</property>
  <entry out="8757" producer="24_playlist2" in="0">
   <filter id="fadein" out="90">
    <property name="window">75</property>
    <property name="max_gain">20dB</property>
    <property name="mlt_service">volume</property>
    <property name="kdenlive_id">fadein</property>
    <property name="tag">volume</property>
    <property name="kdenlive_ix">1</property>
    <property name="gain">0</property>
    <property name="end">1</property>
    <property name="kdenlive_info"/>
   </filter>
   <filter id="fadeout" out="8757" in="8307">
    <property name="window">75</property>
    <property name="max_gain">20dB</property>
    <property name="mlt_service">volume</property>
    <property name="kdenlive_id">fadeout</property>
    <property name="tag">volume</property>
    <property name="kdenlive_ix">2</property>
    <property name="gain">1</property>
    <property name="end">0</property>
    <property name="kdenlive_info"/>
   </filter>
  </entry>
 </playlist>
 <producer id="2_playlist3" title="Anonymous Submission" out="1616" in="0">
  <property name="length">00:00:53:27</property>
  <property name="eof">pause</property>
  <property name="resource">/home/psyriccio/.cache/kdenlive/proxy/451113117085227ca762e3540c2ea919.mpg</property>
  <property name="meta.media.nb_streams">1</property>
  <property name="meta.media.0.stream.type">video</property>
  <property name="meta.media.0.stream.frame_rate">30</property>
  <property name="meta.media.0.stream.sample_aspect_ratio">0</property>
  <property name="meta.media.0.codec.width">640</property>
  <property name="meta.media.0.codec.height">360</property>
  <property name="meta.media.0.codec.rotate">0</property>
  <property name="meta.media.0.codec.frame_rate">30</property>
  <property name="meta.media.0.codec.pix_fmt">yuv420p</property>
  <property name="meta.media.0.codec.sample_aspect_ratio">1</property>
  <property name="meta.media.0.codec.colorspace">601</property>
  <property name="meta.media.0.codec.name">mpeg2video</property>
  <property name="meta.media.0.codec.long_name">MPEG-2 video</property>
  <property name="meta.media.0.codec.bit_rate">0</property>
  <property name="seekable">1</property>
  <property name="meta.media.sample_aspect_num">1</property>
  <property name="meta.media.sample_aspect_den">1</property>
  <property name="aspect_ratio">1</property>
  <property name="audio_index">-1</property>
  <property name="video_index">0</property>
  <property name="mute_on_pause">1</property>
  <property name="mlt_service">avformat</property>
  <property name="kdenlive:folderid">-1</property>
  <property name="kdenlive:file_size">13368248</property>
  <property name="kdenlive:file_hash">451113117085227ca762e3540c2ea919</property>
  <property name="kdenlive:proxy">/home/psyriccio/.cache/kdenlive/proxy/451113117085227ca762e3540c2ea919.mpg</property>
  <property name="proxy_out">1616</property>
  <property name="kdenlive:originalurl">clips/vokoscreen-2017-01-09_22-39-58.avi</property>
  <property name="global_feed">1</property>
  <property name="kdenlive:meta.media.nb_streams">1</property>
  <property name="kdenlive:meta.media.0.stream.type">video</property>
  <property name="kdenlive:meta.media.0.stream.frame_rate">30</property>
  <property name="kdenlive:meta.media.0.stream.sample_aspect_ratio">0</property>
  <property name="kdenlive:meta.media.0.codec.width">1366</property>
  <property name="kdenlive:meta.media.0.codec.height">768</property>
  <property name="kdenlive:meta.media.0.codec.rotate">0</property>
  <property name="kdenlive:meta.media.0.codec.frame_rate">65491</property>
  <property name="kdenlive:meta.media.0.codec.pix_fmt">yuv420p</property>
  <property name="kdenlive:meta.media.0.codec.sample_aspect_ratio">1</property>
  <property name="kdenlive:meta.media.0.codec.colorspace">709</property>
  <property name="kdenlive:meta.media.0.codec.name">mpeg4</property>
  <property name="kdenlive:meta.media.0.codec.long_name">MPEG-4 part 2</property>
  <property name="kdenlive:meta.media.0.codec.bit_rate">1957531</property>
  <property name="kdenlive:meta.media.sample_aspect_num">1</property>
  <property name="kdenlive:meta.media.sample_aspect_den">1</property>
  <property name="kdenlive:meta.media.frame_rate_num">30</property>
  <property name="kdenlive:meta.media.frame_rate_den">1</property>
  <property name="kdenlive:meta.media.colorspace">709</property>
  <property name="kdenlive:meta.media.color_trc">2</property>
  <property name="kdenlive:meta.media.width">1366</property>
  <property name="kdenlive:meta.media.height">768</property>
  <property name="kdenlive:meta.media.top_field_first">0</property>
  <property name="kdenlive:meta.media.progressive">1</property>
  <property name="xml">was here</property>
  <property name="meta.media.frame_rate_num">30</property>
  <property name="meta.media.frame_rate_den">1</property>
  <property name="meta.media.colorspace">601</property>
  <property name="meta.media.color_trc">2</property>
  <property name="meta.media.width">640</property>
  <property name="meta.media.height">360</property>
  <property name="meta.media.top_field_first">0</property>
  <property name="meta.media.progressive">1</property>
 </producer>
 <producer id="4_playlist3" title="Anonymous Submission" out="1756" in="0">
  <property name="length">00:00:58:17</property>
  <property name="eof">pause</property>
  <property name="resource">/home/psyriccio/.cache/kdenlive/proxy/ea290ae975b4b1b17ba5710799caf040.mpg</property>
  <property name="meta.media.nb_streams">1</property>
  <property name="meta.media.0.stream.type">video</property>
  <property name="meta.media.0.stream.frame_rate">30</property>
  <property name="meta.media.0.stream.sample_aspect_ratio">0</property>
  <property name="meta.media.0.codec.width">640</property>
  <property name="meta.media.0.codec.height">360</property>
  <property name="meta.media.0.codec.rotate">0</property>
  <property name="meta.media.0.codec.frame_rate">30</property>
  <property name="meta.media.0.codec.pix_fmt">yuv420p</property>
  <property name="meta.media.0.codec.sample_aspect_ratio">1</property>
  <property name="meta.media.0.codec.colorspace">601</property>
  <property name="meta.media.0.codec.name">mpeg2video</property>
  <property name="meta.media.0.codec.long_name">MPEG-2 video</property>
  <property name="meta.media.0.codec.bit_rate">0</property>
  <property name="seekable">1</property>
  <property name="meta.media.sample_aspect_num">1</property>
  <property name="meta.media.sample_aspect_den">1</property>
  <property name="aspect_ratio">1</property>
  <property name="audio_index">-1</property>
  <property name="video_index">0</property>
  <property name="mute_on_pause">1</property>
  <property name="mlt_service">avformat</property>
  <property name="kdenlive:folderid">-1</property>
  <property name="kdenlive:file_size">14026482</property>
  <property name="kdenlive:file_hash">ea290ae975b4b1b17ba5710799caf040</property>
  <property name="kdenlive:proxy">/home/psyriccio/.cache/kdenlive/proxy/ea290ae975b4b1b17ba5710799caf040.mpg</property>
  <property name="proxy_out">1756</property>
  <property name="kdenlive:originalurl">clips/vokoscreen-2017-01-09_22-54-41.avi</property>
  <property name="global_feed">1</property>
  <property name="kdenlive:meta.media.nb_streams">1</property>
  <property name="kdenlive:meta.media.0.stream.type">video</property>
  <property name="kdenlive:meta.media.0.stream.frame_rate">30</property>
  <property name="kdenlive:meta.media.0.stream.sample_aspect_ratio">0</property>
  <property name="kdenlive:meta.media.0.codec.width">1366</property>
  <property name="kdenlive:meta.media.0.codec.height">768</property>
  <property name="kdenlive:meta.media.0.codec.rotate">0</property>
  <property name="kdenlive:meta.media.0.codec.frame_rate">65491</property>
  <property name="kdenlive:meta.media.0.codec.pix_fmt">yuv420p</property>
  <property name="kdenlive:meta.media.0.codec.sample_aspect_ratio">1</property>
  <property name="kdenlive:meta.media.0.codec.colorspace">709</property>
  <property name="kdenlive:meta.media.0.codec.name">mpeg4</property>
  <property name="kdenlive:meta.media.0.codec.long_name">MPEG-4 part 2</property>
  <property name="kdenlive:meta.media.0.codec.bit_rate">1890963</property>
  <property name="kdenlive:meta.media.sample_aspect_num">1</property>
  <property name="kdenlive:meta.media.sample_aspect_den">1</property>
  <property name="kdenlive:meta.media.frame_rate_num">30</property>
  <property name="kdenlive:meta.media.frame_rate_den">1</property>
  <property name="kdenlive:meta.media.colorspace">709</property>
  <property name="kdenlive:meta.media.color_trc">2</property>
  <property name="kdenlive:meta.media.width">1366</property>
  <property name="kdenlive:meta.media.height">768</property>
  <property name="kdenlive:meta.media.top_field_first">0</property>
  <property name="kdenlive:meta.media.progressive">1</property>
  <property name="xml">was here</property>
  <property name="meta.media.frame_rate_num">30</property>
  <property name="meta.media.frame_rate_den">1</property>
  <property name="meta.media.colorspace">601</property>
  <property name="meta.media.color_trc">2</property>
  <property name="meta.media.width">640</property>
  <property name="meta.media.height">360</property>
  <property name="meta.media.top_field_first">0</property>
  <property name="meta.media.progressive">1</property>
 </producer>
 <producer id="slowmotion:6:4:1:0" out="449" in="0">
  <property name="length">450</property>
  <property name="eof">pause</property>
  <property name="resource">4:/home/psyriccio/.cache/kdenlive/proxy/4919bc473686da9ab709059c3df1024f.mpg</property>
  <property name="aspect_ratio">1</property>
  <property name="meta.media.nb_streams">1</property>
  <property name="meta.media.0.stream.type">video</property>
  <property name="meta.media.0.stream.frame_rate">30</property>
  <property name="meta.media.0.stream.sample_aspect_ratio">0</property>
  <property name="meta.media.0.codec.width">640</property>
  <property name="meta.media.0.codec.height">360</property>
  <property name="meta.media.0.codec.rotate">0</property>
  <property name="meta.media.0.codec.frame_rate">30</property>
  <property name="meta.media.0.codec.pix_fmt">yuv420p</property>
  <property name="meta.media.0.codec.sample_aspect_ratio">1</property>
  <property name="meta.media.0.codec.colorspace">601</property>
  <property name="meta.media.0.codec.name">mpeg2video</property>
  <property name="meta.media.0.codec.long_name">MPEG-2 video</property>
  <property name="meta.media.0.codec.bit_rate">0</property>
  <property name="seekable">1</property>
  <property name="meta.media.sample_aspect_num">1</property>
  <property name="meta.media.sample_aspect_den">1</property>
  <property name="audio_index">-1</property>
  <property name="video_index">0</property>
  <property name="mute_on_pause">1</property>
  <property name="warp_speed">4</property>
  <property name="warp_resource">/home/psyriccio/.cache/kdenlive/proxy/4919bc473686da9ab709059c3df1024f.mpg</property>
  <property name="mlt_service">timewarp</property>
  <property name="kdenlive:proxy">/home/psyriccio/.cache/kdenlive/proxy/4919bc473686da9ab709059c3df1024f.mpg</property>
  <property name="kdenlive:originalurl">clips/vokoscreen-2017-01-09_23-13-30.avi</property>
  <property name="meta.media.frame_rate_num">30</property>
  <property name="meta.media.frame_rate_den">1</property>
  <property name="meta.media.colorspace">601</property>
  <property name="meta.media.color_trc">2</property>
  <property name="meta.media.width">640</property>
  <property name="meta.media.height">360</property>
  <property name="meta.media.top_field_first">0</property>
  <property name="meta.media.progressive">1</property>
 </producer>
 <playlist id="playlist3">
  <property name="kdenlive:track_name">Video 1</property>
  <blank length="3162"/>
  <entry out="579" producer="2_playlist3" in="0"/>
  <entry out="1559" producer="2_playlist3" in="945"/>
  <blank length="321"/>
  <entry out="171" producer="4_playlist3" in="0">
   <filter id="frei0r.softglow">
    <property name="version">0,9</property>
    <property name="mlt_service">frei0r.softglow</property>
    <property name="kdenlive_id">frei0r.softglow</property>
    <property name="tag">frei0r.softglow</property>
    <property name="kdenlive_ix">1</property>
    <property name="0">0,5</property>
    <property name="1">0,815</property>
    <property name="2">1</property>
    <property name="3">1</property>
    <property name="kdenlive_info"/>
   </filter>
  </entry>
  <entry out="934" producer="4_playlist3" in="583"/>
  <entry out="1632" producer="4_playlist3" in="1264"/>
  <blank length="547"/>
  <entry out="449" producer="slowmotion:6:4:1:0" in="0"/>
  <blank length="1750"/>
  <entry out="439" producer="22" in="0">
   <filter id="fade_to_black" out="439" in="364">
    <property name="start">1</property>
    <property name="mlt_service">brightness</property>
    <property name="kdenlive_id">fade_to_black</property>
    <property name="tag">brightness</property>
    <property name="kdenlive_ix">1</property>
    <property name="end">0</property>
   </filter>
  </entry>
 </playlist>
 <producer id="1_playlist4" title="Anonymous Submission" out="4887" in="0">
  <property name="length">00:02:42:28</property>
  <property name="eof">pause</property>
  <property name="resource">/home/psyriccio/.cache/kdenlive/proxy/ff6b55cf82bce7aa5f889932a84375d2.mpg</property>
  <property name="meta.media.nb_streams">1</property>
  <property name="meta.media.0.stream.type">video</property>
  <property name="meta.media.0.stream.frame_rate">30</property>
  <property name="meta.media.0.stream.sample_aspect_ratio">0</property>
  <property name="meta.media.0.codec.width">640</property>
  <property name="meta.media.0.codec.height">360</property>
  <property name="meta.media.0.codec.rotate">0</property>
  <property name="meta.media.0.codec.frame_rate">30</property>
  <property name="meta.media.0.codec.pix_fmt">yuv420p</property>
  <property name="meta.media.0.codec.sample_aspect_ratio">1</property>
  <property name="meta.media.0.codec.colorspace">601</property>
  <property name="meta.media.0.codec.name">mpeg2video</property>
  <property name="meta.media.0.codec.long_name">MPEG-2 video</property>
  <property name="meta.media.0.codec.bit_rate">0</property>
  <property name="seekable">1</property>
  <property name="meta.media.sample_aspect_num">1</property>
  <property name="meta.media.sample_aspect_den">1</property>
  <property name="aspect_ratio">1</property>
  <property name="audio_index">-1</property>
  <property name="video_index">0</property>
  <property name="mute_on_pause">1</property>
  <property name="mlt_service">avformat</property>
  <property name="kdenlive:folderid">-1</property>
  <property name="kdenlive:file_size">18983802</property>
  <property name="kdenlive:file_hash">ff6b55cf82bce7aa5f889932a84375d2</property>
  <property name="kdenlive:proxy">/home/psyriccio/.cache/kdenlive/proxy/ff6b55cf82bce7aa5f889932a84375d2.mpg</property>
  <property name="proxy_out">4887</property>
  <property name="kdenlive:originalurl">clips/vokoscreen-2017-01-09_22-28-36.avi</property>
  <property name="global_feed">1</property>
  <property name="kdenlive:meta.media.nb_streams">1</property>
  <property name="kdenlive:meta.media.0.stream.type">video</property>
  <property name="kdenlive:meta.media.0.stream.frame_rate">30</property>
  <property name="kdenlive:meta.media.0.stream.sample_aspect_ratio">0</property>
  <property name="kdenlive:meta.media.0.codec.width">1366</property>
  <property name="kdenlive:meta.media.0.codec.height">768</property>
  <property name="kdenlive:meta.media.0.codec.rotate">0</property>
  <property name="kdenlive:meta.media.0.codec.frame_rate">65491</property>
  <property name="kdenlive:meta.media.0.codec.pix_fmt">yuv420p</property>
  <property name="kdenlive:meta.media.0.codec.sample_aspect_ratio">1</property>
  <property name="kdenlive:meta.media.0.codec.colorspace">709</property>
  <property name="kdenlive:meta.media.0.codec.name">mpeg4</property>
  <property name="kdenlive:meta.media.0.codec.long_name">MPEG-4 part 2</property>
  <property name="kdenlive:meta.media.0.codec.bit_rate">919146</property>
  <property name="kdenlive:meta.media.sample_aspect_num">1</property>
  <property name="kdenlive:meta.media.sample_aspect_den">1</property>
  <property name="kdenlive:meta.media.frame_rate_num">30</property>
  <property name="kdenlive:meta.media.frame_rate_den">1</property>
  <property name="kdenlive:meta.media.colorspace">709</property>
  <property name="kdenlive:meta.media.color_trc">2</property>
  <property name="kdenlive:meta.media.width">1366</property>
  <property name="kdenlive:meta.media.height">768</property>
  <property name="kdenlive:meta.media.top_field_first">0</property>
  <property name="kdenlive:meta.media.progressive">1</property>
  <property name="xml">was here</property>
  <property name="meta.media.frame_rate_num">30</property>
  <property name="meta.media.frame_rate_den">1</property>
  <property name="meta.media.colorspace">601</property>
  <property name="meta.media.color_trc">2</property>
  <property name="meta.media.width">640</property>
  <property name="meta.media.height">360</property>
  <property name="meta.media.top_field_first">0</property>
  <property name="meta.media.progressive">1</property>
 </producer>
 <producer id="slowmotion:3:10:1:0" out="452" in="0">
  <property name="length">453</property>
  <property name="eof">pause</property>
  <property name="resource">10:/home/psyriccio/.cache/kdenlive/proxy/73b42505af41eef8c98aa2fa48992ae7.mpg</property>
  <property name="aspect_ratio">1</property>
  <property name="meta.media.nb_streams">1</property>
  <property name="meta.media.0.stream.type">video</property>
  <property name="meta.media.0.stream.frame_rate">30</property>
  <property name="meta.media.0.stream.sample_aspect_ratio">0</property>
  <property name="meta.media.0.codec.width">640</property>
  <property name="meta.media.0.codec.height">360</property>
  <property name="meta.media.0.codec.rotate">0</property>
  <property name="meta.media.0.codec.frame_rate">30</property>
  <property name="meta.media.0.codec.pix_fmt">yuv420p</property>
  <property name="meta.media.0.codec.sample_aspect_ratio">1</property>
  <property name="meta.media.0.codec.colorspace">601</property>
  <property name="meta.media.0.codec.name">mpeg2video</property>
  <property name="meta.media.0.codec.long_name">MPEG-2 video</property>
  <property name="meta.media.0.codec.bit_rate">0</property>
  <property name="seekable">1</property>
  <property name="meta.media.sample_aspect_num">1</property>
  <property name="meta.media.sample_aspect_den">1</property>
  <property name="audio_index">-1</property>
  <property name="video_index">0</property>
  <property name="mute_on_pause">1</property>
  <property name="warp_speed">10</property>
  <property name="warp_resource">/home/psyriccio/.cache/kdenlive/proxy/73b42505af41eef8c98aa2fa48992ae7.mpg</property>
  <property name="mlt_service">timewarp</property>
  <property name="kdenlive:proxy">/home/psyriccio/.cache/kdenlive/proxy/73b42505af41eef8c98aa2fa48992ae7.mpg</property>
  <property name="kdenlive:originalurl">clips/vokoscreen-2017-01-09_22-41-19.avi</property>
  <property name="meta.media.frame_rate_num">30</property>
  <property name="meta.media.frame_rate_den">1</property>
  <property name="meta.media.colorspace">601</property>
  <property name="meta.media.color_trc">2</property>
  <property name="meta.media.width">640</property>
  <property name="meta.media.height">360</property>
  <property name="meta.media.top_field_first">0</property>
  <property name="meta.media.progressive">1</property>
 </producer>
 <producer id="slowmotion:5:2:1:0" out="926" in="0">
  <property name="length">927</property>
  <property name="eof">pause</property>
  <property name="resource">2:/home/psyriccio/.cache/kdenlive/proxy/5abe12376e3a359bc0f7529183c6f0cc.mpg</property>
  <property name="aspect_ratio">1</property>
  <property name="meta.media.nb_streams">1</property>
  <property name="meta.media.0.stream.type">video</property>
  <property name="meta.media.0.stream.frame_rate">30</property>
  <property name="meta.media.0.stream.sample_aspect_ratio">0</property>
  <property name="meta.media.0.codec.width">640</property>
  <property name="meta.media.0.codec.height">360</property>
  <property name="meta.media.0.codec.rotate">0</property>
  <property name="meta.media.0.codec.frame_rate">30</property>
  <property name="meta.media.0.codec.pix_fmt">yuv420p</property>
  <property name="meta.media.0.codec.sample_aspect_ratio">1</property>
  <property name="meta.media.0.codec.colorspace">601</property>
  <property name="meta.media.0.codec.name">mpeg2video</property>
  <property name="meta.media.0.codec.long_name">MPEG-2 video</property>
  <property name="meta.media.0.codec.bit_rate">0</property>
  <property name="seekable">1</property>
  <property name="meta.media.sample_aspect_num">1</property>
  <property name="meta.media.sample_aspect_den">1</property>
  <property name="audio_index">-1</property>
  <property name="video_index">0</property>
  <property name="mute_on_pause">1</property>
  <property name="warp_speed">2</property>
  <property name="warp_resource">/home/psyriccio/.cache/kdenlive/proxy/5abe12376e3a359bc0f7529183c6f0cc.mpg</property>
  <property name="mlt_service">timewarp</property>
  <property name="kdenlive:proxy">/home/psyriccio/.cache/kdenlive/proxy/5abe12376e3a359bc0f7529183c6f0cc.mpg</property>
  <property name="kdenlive:originalurl">clips/vokoscreen-2017-01-09_23-08-33.avi</property>
  <property name="meta.media.frame_rate_num">30</property>
  <property name="meta.media.frame_rate_den">1</property>
  <property name="meta.media.colorspace">601</property>
  <property name="meta.media.color_trc">2</property>
  <property name="meta.media.width">640</property>
  <property name="meta.media.height">360</property>
  <property name="meta.media.top_field_first">0</property>
  <property name="meta.media.progressive">1</property>
 </producer>
 <producer id="19_playlist4" title="Anonymous Submission" out="244" in="0">
  <property name="length">00:00:08:05</property>
  <property name="eof">pause</property>
  <property name="resource">/home/psyriccio/.cache/kdenlive/proxy/8e692e2facc8797a9b26b29399cf84c3.mpg</property>
  <property name="meta.media.nb_streams">2</property>
  <property name="meta.media.0.stream.type">video</property>
  <property name="meta.media.0.stream.frame_rate">240</property>
  <property name="meta.media.0.stream.sample_aspect_ratio">0</property>
  <property name="meta.media.0.codec.width">640</property>
  <property name="meta.media.0.codec.height">360</property>
  <property name="meta.media.0.codec.rotate">0</property>
  <property name="meta.media.0.codec.frame_rate">240</property>
  <property name="meta.media.0.codec.pix_fmt">yuv422p</property>
  <property name="meta.media.0.codec.sample_aspect_ratio">1</property>
  <property name="meta.media.0.codec.colorspace">601</property>
  <property name="meta.media.0.codec.name">mpeg2video</property>
  <property name="meta.media.0.codec.long_name">MPEG-2 video</property>
  <property name="meta.media.0.codec.bit_rate">0</property>
  <property name="meta.media.1.stream.type">audio</property>
  <property name="meta.media.1.codec.sample_fmt">s16p</property>
  <property name="meta.media.1.codec.sample_rate">48000</property>
  <property name="meta.media.1.codec.channels">2</property>
  <property name="meta.media.1.codec.name">mp2</property>
  <property name="meta.media.1.codec.long_name">MP2 (MPEG audio layer 2)</property>
  <property name="meta.media.1.codec.bit_rate">128000</property>
  <property name="seekable">1</property>
  <property name="meta.media.sample_aspect_num">1</property>
  <property name="meta.media.sample_aspect_den">1</property>
  <property name="aspect_ratio">1</property>
  <property name="audio_index">1</property>
  <property name="video_index">0</property>
  <property name="mute_on_pause">1</property>
  <property name="mlt_service">avformat</property>
  <property name="kdenlive:folderid">-1</property>
  <property name="kdenlive:file_size">324955032</property>
  <property name="kdenlive:file_hash">8e692e2facc8797a9b26b29399cf84c3</property>
  <property name="kdenlive:proxy">/home/psyriccio/.cache/kdenlive/proxy/8e692e2facc8797a9b26b29399cf84c3.mpg</property>
  <property name="proxy_out">244</property>
  <property name="kdenlive:originalurl">/home/psyriccio/prj/blenderbulber/test1_out.mkv</property>
  <property name="global_feed">1</property>
  <property name="kdenlive:meta.media.nb_streams">2</property>
  <property name="kdenlive:meta.media.0.stream.type">video</property>
  <property name="kdenlive:meta.media.0.stream.frame_rate">1000</property>
  <property name="kdenlive:meta.media.0.stream.sample_aspect_ratio">1</property>
  <property name="kdenlive:meta.media.0.codec.width">1920</property>
  <property name="kdenlive:meta.media.0.codec.height">1080</property>
  <property name="kdenlive:meta.media.0.codec.rotate">0</property>
  <property name="kdenlive:meta.media.0.codec.frame_rate">1000</property>
  <property name="kdenlive:meta.media.0.codec.pix_fmt">yuv422p</property>
  <property name="kdenlive:meta.media.0.codec.sample_aspect_ratio">0</property>
  <property name="kdenlive:meta.media.0.codec.colorspace">709</property>
  <property name="kdenlive:meta.media.0.codec.name">huffyuv</property>
  <property name="kdenlive:meta.media.0.codec.long_name">Huffyuv / HuffYUV</property>
  <property name="kdenlive:meta.media.0.codec.bit_rate">0</property>
  <property name="kdenlive:meta.attr.0.stream.DURATION.markup">00:00:08,033000000</property>
  <property name="kdenlive:meta.media.1.stream.type">audio</property>
  <property name="kdenlive:meta.media.1.codec.sample_fmt">s16</property>
  <property name="kdenlive:meta.media.1.codec.sample_rate">48000</property>
  <property name="kdenlive:meta.media.1.codec.channels">2</property>
  <property name="kdenlive:meta.media.1.codec.name">flac</property>
  <property name="kdenlive:meta.media.1.codec.long_name">FLAC (Free Lossless Audio Codec)</property>
  <property name="kdenlive:meta.media.1.codec.bit_rate">0</property>
  <property name="kdenlive:meta.attr.1.stream.DURATION.markup">00:00:08,160000000</property>
  <property name="kdenlive:meta.attr.ENCODER.markup">Lavf57.56.100</property>
  <property name="kdenlive:meta.media.sample_aspect_num">1</property>
  <property name="kdenlive:meta.media.sample_aspect_den">1</property>
  <property name="kdenlive:meta.media.frame_rate_num">1000</property>
  <property name="kdenlive:meta.media.frame_rate_den">1</property>
  <property name="kdenlive:meta.media.colorspace">709</property>
  <property name="kdenlive:meta.media.color_trc">2</property>
  <property name="kdenlive:meta.media.width">1920</property>
  <property name="kdenlive:meta.media.height">1080</property>
  <property name="kdenlive:meta.media.top_field_first">0</property>
  <property name="kdenlive:meta.media.progressive">1</property>
  <property name="xml">was here</property>
  <property name="meta.media.frame_rate_num">240</property>
  <property name="meta.media.frame_rate_den">1</property>
  <property name="meta.media.colorspace">601</property>
  <property name="meta.media.color_trc">2</property>
  <property name="meta.media.width">640</property>
  <property name="meta.media.height">360</property>
  <property name="meta.media.top_field_first">0</property>
  <property name="meta.media.progressive">1</property>
 </producer>
 <producer id="slowmotion:19:0,5:1:0" out="487" in="0">
  <property name="length">488</property>
  <property name="eof">pause</property>
  <property name="resource">0,5:/home/psyriccio/.cache/kdenlive/proxy/8e692e2facc8797a9b26b29399cf84c3.mpg</property>
  <property name="aspect_ratio">1</property>
  <property name="meta.media.nb_streams">2</property>
  <property name="meta.media.0.stream.type">video</property>
  <property name="meta.media.0.stream.frame_rate">240</property>
  <property name="meta.media.0.stream.sample_aspect_ratio">0</property>
  <property name="meta.media.0.codec.width">640</property>
  <property name="meta.media.0.codec.height">360</property>
  <property name="meta.media.0.codec.rotate">0</property>
  <property name="meta.media.0.codec.frame_rate">240</property>
  <property name="meta.media.0.codec.pix_fmt">yuv422p</property>
  <property name="meta.media.0.codec.sample_aspect_ratio">1</property>
  <property name="meta.media.0.codec.colorspace">601</property>
  <property name="meta.media.0.codec.name">mpeg2video</property>
  <property name="meta.media.0.codec.long_name">MPEG-2 video</property>
  <property name="meta.media.0.codec.bit_rate">0</property>
  <property name="meta.media.1.stream.type">audio</property>
  <property name="meta.media.1.codec.sample_fmt">s16p</property>
  <property name="meta.media.1.codec.sample_rate">48000</property>
  <property name="meta.media.1.codec.channels">2</property>
  <property name="meta.media.1.codec.name">mp2</property>
  <property name="meta.media.1.codec.long_name">MP2 (MPEG audio layer 2)</property>
  <property name="meta.media.1.codec.bit_rate">128000</property>
  <property name="seekable">1</property>
  <property name="meta.media.sample_aspect_num">1</property>
  <property name="meta.media.sample_aspect_den">1</property>
  <property name="audio_index">1</property>
  <property name="video_index">0</property>
  <property name="mute_on_pause">1</property>
  <property name="warp_speed">0,5</property>
  <property name="warp_resource">/home/psyriccio/.cache/kdenlive/proxy/8e692e2facc8797a9b26b29399cf84c3.mpg</property>
  <property name="mlt_service">timewarp</property>
  <property name="kdenlive:proxy">/home/psyriccio/.cache/kdenlive/proxy/8e692e2facc8797a9b26b29399cf84c3.mpg</property>
  <property name="kdenlive:originalurl">/home/psyriccio/prj/blenderbulber/test1_out.mkv</property>
  <property name="meta.media.frame_rate_num">240</property>
  <property name="meta.media.frame_rate_den">1</property>
  <property name="meta.media.colorspace">601</property>
  <property name="meta.media.color_trc">2</property>
  <property name="meta.media.width">640</property>
  <property name="meta.media.height">360</property>
  <property name="meta.media.top_field_first">0</property>
  <property name="meta.media.progressive">1</property>
 </producer>
 <producer id="slowmotion:19:0,25:1:0" out="975" in="0">
  <property name="length">976</property>
  <property name="eof">pause</property>
  <property name="resource">0,25:/home/psyriccio/.cache/kdenlive/proxy/8e692e2facc8797a9b26b29399cf84c3.mpg</property>
  <property name="aspect_ratio">1</property>
  <property name="meta.media.nb_streams">2</property>
  <property name="meta.media.0.stream.type">video</property>
  <property name="meta.media.0.stream.frame_rate">240</property>
  <property name="meta.media.0.stream.sample_aspect_ratio">0</property>
  <property name="meta.media.0.codec.width">640</property>
  <property name="meta.media.0.codec.height">360</property>
  <property name="meta.media.0.codec.rotate">0</property>
  <property name="meta.media.0.codec.frame_rate">240</property>
  <property name="meta.media.0.codec.pix_fmt">yuv422p</property>
  <property name="meta.media.0.codec.sample_aspect_ratio">1</property>
  <property name="meta.media.0.codec.colorspace">601</property>
  <property name="meta.media.0.codec.name">mpeg2video</property>
  <property name="meta.media.0.codec.long_name">MPEG-2 video</property>
  <property name="meta.media.0.codec.bit_rate">0</property>
  <property name="meta.media.1.stream.type">audio</property>
  <property name="meta.media.1.codec.sample_fmt">s16p</property>
  <property name="meta.media.1.codec.sample_rate">48000</property>
  <property name="meta.media.1.codec.channels">2</property>
  <property name="meta.media.1.codec.name">mp2</property>
  <property name="meta.media.1.codec.long_name">MP2 (MPEG audio layer 2)</property>
  <property name="meta.media.1.codec.bit_rate">128000</property>
  <property name="seekable">1</property>
  <property name="meta.media.sample_aspect_num">1</property>
  <property name="meta.media.sample_aspect_den">1</property>
  <property name="audio_index">1</property>
  <property name="video_index">0</property>
  <property name="mute_on_pause">1</property>
  <property name="warp_speed">0,25</property>
  <property name="warp_resource">/home/psyriccio/.cache/kdenlive/proxy/8e692e2facc8797a9b26b29399cf84c3.mpg</property>
  <property name="mlt_service">timewarp</property>
  <property name="kdenlive:proxy">/home/psyriccio/.cache/kdenlive/proxy/8e692e2facc8797a9b26b29399cf84c3.mpg</property>
  <property name="kdenlive:originalurl">/home/psyriccio/prj/blenderbulber/test1_out.mkv</property>
  <property name="meta.media.frame_rate_num">240</property>
  <property name="meta.media.frame_rate_den">1</property>
  <property name="meta.media.colorspace">601</property>
  <property name="meta.media.color_trc">2</property>
  <property name="meta.media.width">640</property>
  <property name="meta.media.height">360</property>
  <property name="meta.media.top_field_first">0</property>
  <property name="meta.media.progressive">1</property>
 </producer>
 <playlist id="playlist4">
  <property name="kdenlive:track_name">Video 2</property>
  <blank length="123"/>
  <entry out="2475" producer="1_playlist4" in="77"/>
  <entry out="4703" producer="1_playlist4" in="3977"/>
  <entry out="244" producer="13" in="0"/>
  <blank length="767"/>
  <entry out="452" producer="slowmotion:3:10:1:0" in="0"/>
  <blank length="488"/>
  <entry out="267" producer="16" in="0"/>
  <entry out="926" producer="slowmotion:5:2:1:0" in="185"/>
  <entry out="246" producer="18" in="0"/>
  <entry out="149" producer="20" in="0">
   <filter id="obscure">
    <property name="start">-157 -115 6259 3499</property>
    <property name="end"/>
    <property name="mlt_service">obscure</property>
    <property name="kdenlive_id">obscure</property>
    <property name="tag">obscure</property>
    <property name="kdenlive_ix">1</property>
    <property name="kdenlive_info"/>
   </filter>
  </entry>
  <entry out="244" producer="19_playlist4" in="0"/>
  <entry out="487" producer="slowmotion:19:0,5:1:0" in="0"/>
  <entry out="975" producer="slowmotion:19:0,25:1:0" in="0"/>
  <entry out="78" producer="20" in="0">
   <filter id="filter0">
    <property name="start">-1265 -263 3953 1775</property>
    <property name="end"/>
    <property name="mlt_service">obscure</property>
    <property name="kdenlive_id">obscure</property>
    <property name="tag">obscure</property>
    <property name="kdenlive_ix">1</property>
    <property name="kdenlive_info"/>
   </filter>
  </entry>
 </playlist>
 <playlist id="playlist5">
  <property name="kdenlive:track_name">Video 3</property>
  <entry out="149" producer="7" in="0">
   <filter id="fade_from_black" out="75">
    <property name="start">0</property>
    <property name="mlt_service">brightness</property>
    <property name="kdenlive_id">fade_from_black</property>
    <property name="tag">brightness</property>
    <property name="kdenlive_ix">1</property>
    <property name="end">1</property>
   </filter>
  </entry>
  <entry out="149" producer="8" in="0"/>
  <blank length="140"/>
  <entry out="149" producer="9" in="0"/>
  <blank length="201"/>
  <entry out="618" producer="10" in="0"/>
  <blank length="1237"/>
  <entry out="154" producer="11" in="0"/>
  <blank length="210"/>
  <entry out="149" producer="12" in="0"/>
  <blank length="1195"/>
  <entry out="204" producer="14" in="0"/>
  <blank length="77"/>
  <entry out="171" producer="15" in="0"/>
  <blank length="760"/>
  <entry out="201" producer="17" in="0"/>
 </playlist>
 <tractor id="maintractor" title="Anonymous Submission" global_feed="1" out="8758" in="0">
  <track producer="black_track"/>
  <track producer="playlist1" hide="video"/>
  <track producer="playlist2" hide="video"/>
  <track producer="playlist3"/>
  <track producer="playlist4"/>
  <track producer="playlist5"/>
  <transition id="transition0">
   <property name="a_track">0</property>
   <property name="b_track">1</property>
   <property name="mlt_service">mix</property>
   <property name="always_active">1</property>
   <property name="combine">1</property>
   <property name="internal_added">237</property>
  </transition>
  <transition id="transition1">
   <property name="a_track">0</property>
   <property name="b_track">2</property>
   <property name="mlt_service">mix</property>
   <property name="always_active">1</property>
   <property name="combine">1</property>
   <property name="internal_added">237</property>
  </transition>
  <transition id="transition2">
   <property name="a_track">0</property>
   <property name="b_track">3</property>
   <property name="mlt_service">mix</property>
   <property name="always_active">1</property>
   <property name="combine">1</property>
   <property name="internal_added">237</property>
  </transition>
  <transition id="transition3">
   <property name="a_track">0</property>
   <property name="b_track">4</property>
   <property name="mlt_service">mix</property>
   <property name="always_active">1</property>
   <property name="combine">1</property>
   <property name="internal_added">237</property>
  </transition>
  <transition id="transition4">
   <property name="a_track">0</property>
   <property name="b_track">5</property>
   <property name="mlt_service">mix</property>
   <property name="always_active">1</property>
   <property name="combine">1</property>
   <property name="internal_added">237</property>
  </transition>
  <transition id="transition5" out="149" in="123">
   <property name="a_track">4</property>
   <property name="b_track">5</property>
   <property name="factory">loader</property>
   <property name="mlt_service">luma</property>
   <property name="automatic">1</property>
   <property name="kdenlive_id">dissolve</property>
   <property name="force_track">0</property>
   <property name="reverse">1</property>
  </transition>
  <transition id="transition6" out="3248" in="3162">
   <property name="a_track">3</property>
   <property name="b_track">4</property>
   <property name="factory">loader</property>
   <property name="mlt_service">luma</property>
   <property name="automatic">1</property>
   <property name="kdenlive_id">dissolve</property>
   <property name="force_track">0</property>
   <property name="reverse">1</property>
  </transition>
  <transition id="transition7" out="4713" in="4678">
   <property name="a_track">3</property>
   <property name="b_track">4</property>
   <property name="factory">loader</property>
   <property name="mlt_service">luma</property>
   <property name="automatic">1</property>
   <property name="kdenlive_id">dissolve</property>
   <property name="force_track">0</property>
   <property name="reverse">1</property>
  </transition>
  <transition id="transition8" out="4377" in="4261">
   <property name="a_track">3</property>
   <property name="b_track">4</property>
   <property name="factory">loader</property>
   <property name="mlt_service">luma</property>
   <property name="automatic">1</property>
   <property name="kdenlive_id">dissolve</property>
   <property name="force_track">1</property>
   <property name="reverse">0</property>
  </transition>
  <transition id="transition9" out="5570" in="5470">
   <property name="a_track">3</property>
   <property name="b_track">4</property>
   <property name="factory">loader</property>
   <property name="mlt_service">luma</property>
   <property name="automatic">1</property>
   <property name="kdenlive_id">dissolve</property>
   <property name="force_track">0</property>
   <property name="reverse">0</property>
  </transition>
  <transition id="transition10" out="6211" in="6118">
   <property name="a_track">3</property>
   <property name="b_track">4</property>
   <property name="factory">loader</property>
   <property name="mlt_service">luma</property>
   <property name="automatic">1</property>
   <property name="kdenlive_id">dissolve</property>
   <property name="force_track">0</property>
   <property name="reverse">1</property>
  </transition>
  <transition id="transition11" out="6567" in="6459">
   <property name="a_track">3</property>
   <property name="b_track">4</property>
   <property name="factory">loader</property>
   <property name="mlt_service">luma</property>
   <property name="automatic">1</property>
   <property name="kdenlive_id">dissolve</property>
   <property name="force_track">1</property>
   <property name="reverse">0</property>
  </transition>
  <transition id="transition12" out="8396" in="8318">
   <property name="a_track">3</property>
   <property name="b_track">4</property>
   <property name="factory">loader</property>
   <property name="mlt_service">luma</property>
   <property name="automatic">1</property>
   <property name="kdenlive_id">dissolve</property>
   <property name="force_track">1</property>
   <property name="reverse">1</property>
  </transition>
  <transition id="transition13">
   <property name="a_track">0</property>
   <property name="b_track">3</property>
   <property name="compositing">0</property>
   <property name="distort">0</property>
   <property name="mlt_service">qtblend</property>
   <property name="internal_added">237</property>
  </transition>
  <transition id="transition14">
   <property name="a_track">0</property>
   <property name="b_track">4</property>
   <property name="compositing">0</property>
   <property name="distort">0</property>
   <property name="mlt_service">qtblend</property>
   <property name="internal_added">237</property>
  </transition>
  <transition id="transition15">
   <property name="a_track">0</property>
   <property name="b_track">5</property>
   <property name="compositing">0</property>
   <property name="distort">0</property>
   <property name="mlt_service">qtblend</property>
   <property name="internal_added">237</property>
  </transition>
 </tractor>
</mlt>
